<svg width="747" height="195" viewBox="0 0 747 195" fill="none" xmlns="http://www.w3.org/2000/svg">
<path opacity="0.2" d="M69.3602 1.44702e-05H97.0228L166.384 190.777H142.128L127.956 151.804H38.4271L24.3914 190.777H-0.000813437L69.3602 1.44702e-05ZM46.8758 128.911H119.507L83.1234 29.2979L46.8758 128.911ZM242.232 194.32C226.97 194.32 213.707 190.595 202.442 183.146C191.268 175.696 182.637 165.703 176.551 153.167C170.555 140.539 167.557 126.549 167.557 111.196V1.44702e-05H190.45V111.196C190.45 122.097 192.449 132.136 196.446 141.311C200.534 150.487 206.394 157.8 214.025 163.25C221.747 168.701 231.149 171.427 242.232 171.427C253.497 171.427 262.945 168.701 270.576 163.25C278.208 157.709 283.976 150.396 287.883 141.311C291.88 132.136 293.878 122.097 293.878 111.196V1.44702e-05H316.772V111.196C316.772 122.733 315.046 133.544 311.593 143.628C308.141 153.621 303.145 162.433 296.604 170.064C290.154 177.695 282.341 183.645 273.166 187.915C263.99 192.185 253.679 194.32 242.232 194.32ZM325.938 190.777V1.44702e-05H392.982C403.157 1.44702e-05 412.333 2.49828 420.509 7.49483C428.776 12.4914 435.317 19.2594 440.131 27.7989C445.037 36.2476 447.49 45.6956 447.49 56.1429C447.49 65.3184 445.673 73.6762 442.039 81.2164C438.405 88.7566 433.409 95.0704 427.05 100.158C420.781 105.154 413.65 108.607 405.655 110.514L451.987 190.777H425.551L380.037 112.422H348.831V190.777H325.938ZM348.831 89.5288H390.666C396.843 89.5288 402.521 88.0299 407.699 85.032C412.878 81.9432 416.966 77.8097 419.964 72.6315C423.052 67.3624 424.597 61.4574 424.597 54.9165C424.597 48.2847 423.052 42.3797 419.964 37.2015C416.966 31.9324 412.878 27.7989 407.699 24.801C402.521 21.7122 396.843 20.1678 390.666 20.1678H348.831V89.5288ZM461.696 190.777V1.44702e-05H578.751V22.8932H484.589V77.1283H561.718V100.022H484.589V167.884H578.751V190.777H461.696ZM578.632 190.777L648.538 94.8433L579.45 1.44702e-05H607.657L662.574 75.4931L717.626 1.44702e-05H745.834L676.882 94.8433L746.652 190.777H718.308L662.574 114.466L607.112 190.777H578.632Z" fill="#C19A5B" fill-opacity="0.67"/>
</svg>
