<svg width="1243" height="324" viewBox="0 0 1243 324" fill="none" xmlns="http://www.w3.org/2000/svg">
<path opacity="0.2" d="M115.452 -5.21487e-05H161.496L276.947 317.546H236.573L212.984 252.676H63.9638L40.6015 317.546H0.00096564L115.452 -5.21487e-05ZM78.0266 214.57H198.921L138.36 48.766L78.0266 214.57ZM403.196 323.443C377.792 323.443 355.715 317.244 336.965 304.844C318.366 292.445 304.001 275.811 293.869 254.944C283.889 233.926 278.899 210.639 278.899 185.084V-5.21487e-05H317.005V185.084C317.005 203.23 320.332 219.938 326.985 235.211C333.789 250.483 343.543 262.656 356.245 271.729C369.098 280.802 384.748 285.338 403.196 285.338C421.946 285.338 437.672 280.802 450.374 271.729C463.076 262.505 472.678 250.332 479.18 235.211C485.834 219.938 489.16 203.23 489.16 185.084V-5.21487e-05H527.266V185.084C527.266 204.288 524.393 222.282 518.647 239.067C512.901 255.7 504.584 270.368 493.697 283.07C482.961 295.772 469.956 305.676 454.684 312.783C439.411 319.89 422.249 323.443 403.196 323.443ZM542.523 317.546V-5.21487e-05H654.118C671.054 -5.21487e-05 686.326 4.1583 699.935 12.475C713.695 20.7917 724.583 32.057 732.597 46.271C740.762 60.3337 744.845 76.0598 744.845 93.4493C744.845 108.722 741.821 122.633 735.772 135.184C729.724 147.735 721.407 158.244 710.822 166.712C700.389 175.028 688.519 180.774 675.212 183.95L752.33 317.546H708.327L632.57 187.125H580.628V317.546H542.523ZM580.628 149.02H650.262C660.544 149.02 669.995 146.525 678.614 141.535C687.233 136.394 694.038 129.513 699.028 120.894C704.169 112.124 706.74 102.295 706.74 91.4079C706.74 80.3694 704.169 70.5406 699.028 61.9215C694.038 53.1511 687.233 46.271 678.614 41.281C669.995 36.1397 660.544 33.5691 650.262 33.5691H580.628V149.02ZM768.491 317.546V-5.21487e-05H963.328V38.1055H806.597V128.379H934.976V166.485H806.597V279.441H963.328V317.546H768.491ZM963.13 317.546L1079.49 157.866L964.491 -5.21487e-05H1011.44L1102.85 125.658L1194.48 -5.21487e-05H1241.44L1126.67 157.866L1242.8 317.546H1195.62L1102.85 190.528L1010.53 317.546H963.13Z" fill="#C19A5B" fill-opacity="0.67"/>
</svg>
