<svg width="1820" height="683" viewBox="0 0 1820 683" fill="none" xmlns="http://www.w3.org/2000/svg">
<rect width="1820" height="683" fill="black"/>
<path opacity="0.2" d="M403.596 177.454H449.64L565.091 495H524.717L501.128 430.13H352.108L328.746 495H288.145L403.596 177.454ZM366.171 392.024H487.065L426.505 226.22L366.171 392.024ZM691.341 500.897C665.937 500.897 643.86 494.698 625.109 482.298C606.51 469.899 592.145 453.265 582.014 432.398C572.034 411.38 567.044 388.093 567.044 362.538V177.454H605.149V362.538C605.149 380.683 608.476 397.392 615.129 412.665C621.934 427.937 631.687 440.11 644.389 449.183C657.242 458.255 672.893 462.792 691.341 462.792C710.091 462.792 725.817 458.255 738.519 449.183C751.221 439.959 760.823 427.786 767.325 412.665C773.978 397.392 777.305 380.683 777.305 362.538V177.454H815.41V362.538C815.41 381.742 812.537 399.736 806.791 416.521C801.045 433.154 792.729 447.822 781.841 460.524C771.105 473.225 758.101 483.13 742.828 490.237C727.556 497.344 710.393 500.897 691.341 500.897ZM830.667 495V177.454H942.262C959.198 177.454 974.471 181.612 988.08 189.929C1001.84 198.246 1012.73 209.511 1020.74 223.725C1028.91 237.788 1032.99 253.514 1032.99 270.903C1032.99 286.176 1029.97 300.087 1023.92 312.638C1017.87 325.188 1009.55 335.698 998.967 344.166C988.533 352.482 976.663 358.228 963.356 361.404L1040.47 495H996.472L920.714 364.579H868.773V495H830.667ZM868.773 326.474H938.406C948.689 326.474 958.14 323.979 966.759 318.989C975.378 313.847 982.182 306.967 987.172 298.348C992.314 289.578 994.884 279.749 994.884 268.862C994.884 257.823 992.314 247.994 987.172 239.375C982.182 230.605 975.378 223.725 966.759 218.735C958.14 213.594 948.689 211.023 938.406 211.023H868.773V326.474ZM1056.64 495V177.454H1251.47V215.559H1094.74V305.833H1223.12V343.939H1094.74V456.894H1251.47V495H1056.64ZM1251.27 495L1367.63 335.32L1252.64 177.454H1299.59L1390.99 303.111L1482.63 177.454H1529.58L1414.81 335.32L1530.94 495H1483.76L1390.99 367.982L1298.68 495H1251.27Z" fill="#C19A5B" fill-opacity="0.67"/>
</svg>
