<svg width="1521" height="1311" viewBox="0 0 1521 1311" fill="none" xmlns="http://www.w3.org/2000/svg">
<rect width="1521" height="1311" fill="black"/>
<path opacity="0.2" d="M252.596 491.454H298.64L414.091 809H373.717L350.128 744.13H201.108L177.746 809H137.145L252.596 491.454ZM215.171 706.024H336.065L275.505 540.22L215.171 706.024ZM540.341 814.897C514.937 814.897 492.86 808.698 474.109 796.298C455.51 783.899 441.145 767.265 431.014 746.398C421.034 725.38 416.044 702.093 416.044 676.538V491.454H454.149V676.538C454.149 694.683 457.476 711.392 464.129 726.665C470.934 741.937 480.687 754.11 493.389 763.183C506.242 772.255 521.893 776.792 540.341 776.792C559.091 776.792 574.817 772.255 587.519 763.183C600.221 753.959 609.823 741.786 616.325 726.665C622.978 711.392 626.305 694.683 626.305 676.538V491.454H664.41V676.538C664.41 695.742 661.537 713.736 655.791 730.521C650.045 747.154 641.729 761.822 630.841 774.524C620.105 787.225 607.101 797.13 591.828 804.237C576.556 811.344 559.393 814.897 540.341 814.897ZM679.667 809V491.454H791.262C808.198 491.454 823.471 495.612 837.08 503.929C850.84 512.246 861.727 523.511 869.742 537.725C877.907 551.788 881.99 567.514 881.99 584.903C881.99 600.176 878.966 614.087 872.917 626.638C866.869 639.188 858.552 649.698 847.967 658.166C837.533 666.482 825.663 672.228 812.356 675.404L889.475 809H845.472L769.714 678.579H717.773V809H679.667ZM717.773 640.474H787.406C797.689 640.474 807.14 637.979 815.759 632.989C824.378 627.847 831.182 620.967 836.172 612.348C841.314 603.578 843.884 593.749 843.884 582.862C843.884 571.823 841.314 561.994 836.172 553.375C831.182 544.605 824.378 537.725 815.759 532.735C807.14 527.594 797.689 525.023 787.406 525.023H717.773V640.474ZM905.636 809V491.454H1100.47V529.559H943.741V619.833H1072.12V657.939H943.741V770.894H1100.47V809H905.636ZM1100.27 809L1216.63 649.32L1101.64 491.454H1148.59L1239.99 617.111L1331.63 491.454H1378.58L1263.81 649.32L1379.94 809H1332.76L1239.99 681.982L1147.68 809H1100.27Z" fill="#C19A5B" fill-opacity="0.67"/>
</svg>
