<svg width="20" height="20" viewBox="0 0 20 20" fill="none" xmlns="http://www.w3.org/2000/svg">
<g clip-path="url(#clip0_759_554)">
<path d="M18.519 0H1.47607C0.659668 0 -0.000488281 0.644531 -0.000488281 1.44141V18.5547C-0.000488281 19.3516 0.659668 20 1.47607 20H18.519C19.3354 20 19.9995 19.3516 19.9995 18.5586V1.44141C19.9995 0.644531 19.3354 0 18.519 0ZM5.9331 17.043H2.96436V7.49609H5.9331V17.043ZM4.44873 6.19531C3.49561 6.19531 2.72607 5.42578 2.72607 4.47656C2.72607 3.52734 3.49561 2.75781 4.44873 2.75781C5.39795 2.75781 6.16748 3.52734 6.16748 4.47656C6.16748 5.42188 5.39795 6.19531 4.44873 6.19531ZM17.0425 17.043H14.0776V12.4023C14.0776 11.2969 14.0581 9.87109 12.5347 9.87109C10.9917 9.87109 10.7573 11.0781 10.7573 12.3242V17.043H7.79639V7.49609H10.6401V8.80078H10.6792C11.0737 8.05078 12.0425 7.25781 13.4839 7.25781C16.4878 7.25781 17.0425 9.23438 17.0425 11.8047V17.043Z" fill="white"/>
</g>
<defs>
<clipPath id="clip0_759_554">
<rect width="20" height="20" fill="white"/>
</clipPath>
</defs>
</svg>
