<svg width="70" height="412" viewBox="0 0 70 412" fill="none" xmlns="http://www.w3.org/2000/svg">
<path fill-rule="evenodd" clip-rule="evenodd" d="M0.543678 1.72186C0.868646 2.61826 1.23736 3.82416 0.787404 4.46262C-0.0875096 5.70724 1.36859 5.95874 1.46858 6.68103C1.73106 8.6286 4.04958 7.51938 5.02449 10.5181C5.05573 10.6149 5.11823 10.7503 5.18697 10.7632C11.3301 12.2464 4.912 22.584 6.83681 24.2027C7.04304 24.3832 6.82431 25.2474 6.56808 26.8402C10.3552 26.8402 8.39915 30.9869 7.83046 32.7861C7.73047 33.0957 7.99294 33.9211 7.98044 34.4113C7.90545 37.4616 8.62413 38.3064 7.3555 39.3382C5.94314 40.4926 7.04304 41.505 6.36185 42.3692C5.21197 43.8202 5.67442 44.3232 7.03054 44.852C8.51789 45.4324 7.68047 46.0773 8.49914 47.4122C9.47405 48.9986 8.13043 50.5399 7.67422 51.3073C11.3614 57.1113 9.3928 59.7618 9.71777 60.9097C11.0864 61.1999 12.1613 62.5219 12.1738 63.9214C12.1738 63.9214 12.1863 66.9588 12.1488 67.0942C11.6926 68.8676 12.4113 68.3388 12.455 68.9708C12.5237 70.0736 13.1674 69.4996 13.4299 70.5315C14.1611 73.4528 12.7362 74.059 12.8175 75.2391C12.8987 76.4128 12.4925 77.6059 12.9425 78.7603C13.0737 79.0956 13.4674 83.4615 13.1924 85.9185C13.6236 86.17 14.0423 86.4796 14.0673 86.989C14.1361 88.3175 14.1173 89.646 13.7299 90.9358C13.4049 92.0127 14.1236 91.3227 13.9924 93.296C13.9174 94.3278 14.2798 94.5213 14.6298 96.1077C15.0172 97.8231 16.1859 97.3911 16.1484 98.5712C16.0609 101.028 17.0608 106.935 15.6109 108.806C14.6548 110.044 15.5172 111.082 14.6235 111.791C14.0861 112.211 14.6048 113.043 14.3798 113.7C13.9861 114.887 15.1797 114.687 14.611 116.673C14.4236 117.299 14.0736 117.899 13.9736 118.537C13.8861 119.092 13.5861 119.433 13.3049 119.846C12.2113 121.503 12.4425 124.709 11.0801 125.36C11.1614 127.662 11.8363 125.308 11.6551 128.965C11.3801 134.459 13.6299 134.666 13.8549 136.181C13.8736 136.336 13.7549 136.542 13.8174 136.645C14.0923 137.09 13.8674 137.452 13.6924 137.839C13.1237 139.161 14.4673 139.277 13.2612 141.302C13.0112 141.721 12.455 143.481 12.78 143.842C13.1549 144.262 12.9612 144.487 12.23 146.557C13.0549 147.093 13.1487 149.382 11.9051 149.679C12.0113 151.155 12.6862 151.684 11.8863 152.71C11.7238 152.916 11.8301 153.567 11.7176 153.793C11.3239 154.554 11.6363 156.366 11.7863 156.489C12.355 156.972 12.1238 157.43 11.9926 158.855C13.7986 159.32 11.5676 161.422 12.0051 162.37C12.0613 162.48 11.9613 162.68 11.9051 162.828C11.2489 164.647 12.8675 164.814 12.9862 165.614C13.0549 166.052 13.2549 166.465 13.0612 166.942C12.8612 167.445 13.4174 167.8 13.4174 168.284C13.4174 169.29 13.4424 169.812 13.1174 170.205C13.1174 170.205 13.1049 170.825 12.855 171.147C12.6112 171.45 12.3113 171.695 12.03 171.966L12.1175 172.005C11.2239 174.21 11.5176 172.837 12.8925 175.5C14.0548 177.751 12.9737 176.796 14.1986 179.756C14.7735 181.143 14.0299 181.001 14.4361 181.955C14.7985 182.781 14.6048 183.239 13.9736 184.767C13.5861 185.721 16.1234 186.915 16.0921 188.759C16.0671 190.597 17.4233 188.436 16.0422 193.679C15.7797 194.692 17.142 195.272 15.7984 196.452C14.7485 197.368 16.0609 197.729 15.2672 199.032C15.186 199.167 15.1985 199.4 15.2297 199.574C15.361 200.296 16.0984 202.514 15.8609 203.462C15.3235 205.784 14.761 207.983 14.7048 208.189C14.5735 208.621 14.686 209.602 14.5048 210.047C14.1173 211.008 14.7735 210.988 15.0922 214.361C15.2047 215.58 15.336 216.779 15.7859 217.901C16.1421 218.804 16.6733 219.63 16.7046 220.726C16.7046 220.726 17.1608 221.332 17.2858 222.538C18.1482 231.038 16.9108 227.175 17.7232 234.224C18.0295 236.893 18.6231 238.809 18.3107 239.873C18.1107 240.537 18.2294 240.718 18.3357 243.658C18.3607 244.458 17.7107 248.372 18.1732 251.158C18.3857 252.442 18.2919 254.944 18.3044 255.053C18.6356 256.937 18.1919 256.911 18.1732 257.452C17.967 263.321 17.2483 259.761 17.6295 263.624C17.7357 264.759 17.2358 264.765 17.0983 266.262C16.8358 269.086 16.8421 269.357 17.3545 270.208C17.567 270.557 18.5482 271.911 18.6107 273.078C18.7544 275.658 18.6481 275.916 18.3482 276.193C17.8107 276.683 18.0732 277.218 18.0045 277.766C17.1983 283.957 18.3982 283.132 15.7859 292.954C16.6483 294.611 16.0422 295.069 15.5547 298.196C14.786 303.169 14.9798 296.784 14.8048 305.432C14.7673 307.012 15.0985 306.516 14.7235 309.005C14.0611 313.384 14.9423 314.035 15.1735 315.105C15.361 315.976 15.536 316.847 15.9422 317.601C16.0297 317.756 16.0922 318.033 16.0484 318.207C15.6859 319.723 17.792 325.972 17.192 329.009C17.1483 329.229 17.142 329.538 17.2233 329.719C17.5358 330.37 17.3358 331.589 17.4483 331.969C17.892 333.446 17.1795 334.33 17.2858 335.374C17.292 335.51 17.7545 339.308 17.8357 339.676C18.1982 341.23 17.842 342.101 18.0982 343.107C19.0606 346.937 16.9296 343.145 19.5106 349.052C20.248 349.259 20.5105 349.755 20.198 350.671C19.8293 351.742 20.8729 352.354 20.5792 353.915C20.5792 353.915 20.9354 355.546 20.8417 356.501C20.7167 357.765 21.1916 358.822 21.0729 359.564C20.8542 360.951 21.4166 361.454 20.9604 362.253C20.348 363.311 21.0042 366.929 21.0292 367.322C21.1479 368.999 22.0978 369.27 22.2728 369.921C22.504 370.824 22.8602 372.449 22.5853 373.332C21.8978 375.583 22.3603 376.273 22.4665 377.524C23.2977 387.507 24.2289 385.069 23.7477 389.326C23.6727 389.964 23.7914 390.641 23.5102 391.235C23.5102 391.235 23.5102 391.344 23.5227 391.389C23.7414 392.299 23.1165 392.692 23.3352 393.788C23.3789 393.975 23.3289 394.201 23.2914 394.401C23.0977 395.394 22.8352 396.381 22.9665 397.438C23.129 398.825 23.1415 399.102 23.4664 399.431C24.6663 400.656 23.7289 401.482 24.985 403.275C25.9099 404.61 27.1786 409.24 26.7973 410.955C26.7786 411.052 26.7536 411.168 26.7723 411.265C26.8223 411.542 26.8598 411.774 26.9036 412L69.9431 412C70.1618 410.407 69.7369 392.776 68.8994 384.56C68.7682 383.29 69.2057 383.728 69.3931 382.296C69.6494 380.284 67.7808 368.818 68.2057 367.361C68.7557 365.516 68.637 361.924 67.7808 359.764C67.4246 358.874 67.837 358.752 67.6996 358.152C67.4558 357.126 66.7621 356.282 66.9871 355.05L66.9746 354.972C66.5809 354.153 66.3872 347.64 65.1248 345.744C64.8248 345.286 64.1687 339.631 64.0999 339.024C63.55 333.852 63 335.174 62.8688 331.253C62.8313 330.002 64.0499 329.667 64.1499 327.61C64.1624 327.481 64.2061 327.326 64.2749 327.249C64.8061 326.675 64.7311 325.894 64.6998 325.114C64.5811 322.251 64.7748 321.277 64.4124 319.955C63.9624 318.317 64.4061 317.388 64.3249 316.634C63.9562 313.351 65.4873 310.83 65.0936 309.734C64.6748 308.553 65.0373 307.354 64.9123 306.187C65.9372 303.452 63.6874 295.662 63.9437 293.45C64.8936 285.163 63.45 286.466 63.6125 283.274C63.6999 281.61 64.1624 279.256 64.0374 278.153C63.9499 277.347 64.3124 275.987 64.3124 275.987L64.3874 270.499C64.3999 269.428 64.9373 269.802 64.7811 268.448C64.4186 265.372 65.331 264.443 64.9561 262.715C64.8561 262.289 64.8248 261.857 65.0373 261.406C65.2498 260.954 65.0123 259.8 65.1873 259.374C65.5935 258.349 65.0561 257.407 65.0373 255.95C64.9436 249.075 65.3248 252.158 65.6997 249.243C66.5934 242.42 65.0873 224.866 65.2998 223.119C65.3435 222.706 65.8747 219.185 65.9122 218.559C65.9685 217.585 65.956 214.928 66.0247 214.6C66.5747 211.698 65.1935 209.756 65.731 207.041C65.8872 206.281 65.581 205.423 65.6935 204.636C65.7122 204.468 66.8684 201.373 66.4872 201.373C66.1747 198.884 65.2498 200.722 65.131 197.832C65.0811 196.581 64.2561 197.175 64.1936 196.124C64.0562 193.725 63.575 194.666 63.8687 192.441C64.1624 190.197 63.1187 189.945 64.3811 186.566C61.1627 181.052 63.5562 179.801 61.3752 177.441C60.8252 176.841 61.0377 175.913 60.7002 175.319C60.394 174.784 59.6378 172.559 59.6878 171.695C58.7817 171.353 58.9504 171.637 58.8442 169.058C58.6129 163.228 57.6318 168.11 57.7505 158.41C57.7755 156.16 58.5629 155.87 57.8318 154.993C55.1695 151.787 57.5006 149.917 55.3133 145.081C54.7821 143.894 55.057 143.101 54.3634 142.52C54.0071 142.217 54.2196 140.605 54.6446 139.773C55.6382 137.826 53.3447 136.781 57.4693 131.041C58.2442 129.964 56.9006 129.068 57.563 126.663C58.2567 124.18 58.5379 124.896 58.9129 124.07C59.1004 123.677 59.8503 122.193 59.8816 121.181C59.9441 119.175 60.8877 117.247 60.7315 115.796C60.494 113.475 61.2502 113.52 60.8815 112.301C60.7315 111.791 60.619 111.211 60.9377 110.753C61.2877 110.263 61.2627 109.56 61.8439 109.212C61.9564 109.147 62.0314 106.097 62.0376 105.962C62.6063 93.2186 60.8127 98.9904 61.7376 87.7951C61.7939 87.118 61.2752 85.9379 62.0001 85.2091C63.3437 83.8484 62.5688 77.1158 62.4626 76.7224C62.2876 76.071 62.2876 75.452 62.8375 74.9554C61.9751 73.6463 63.35 72.6725 62.0938 71.1634C61.5064 70.4476 61.9876 68.9063 62.1376 68.513C63.6124 64.6501 62.9625 68.4678 63.375 62.9089C63.375 62.9089 63.9374 61.8061 64.0499 61.2515C64.2999 60.0262 64.6373 58.1819 64.0312 57.3693C63.7312 56.9759 63.5999 55.4797 62.5188 54.7381C62.0751 54.435 62.2376 53.5 62.2438 53.1001C62.3438 47.6702 60.4815 45.7742 60.369 44.5618C60.219 42.956 60.2065 42.1306 59.9753 41.9242C58.9442 40.9827 60.1065 39.9444 60.3003 37.6937C60.4065 36.5394 60.5127 34.4435 60.5127 34.4435C60.819 33.0054 59.6753 32.799 60.1378 31.1417C60.2503 30.7418 60.1315 30.5677 60.019 27.885C60.0065 27.6206 60.2503 26.7177 60.2815 26.434C60.4003 25.544 60.3753 24.6283 61.0314 23.8867C61.5126 23.3578 60.6065 19.6433 60.344 19.0371C59.4566 17.0186 60.2628 15.7998 59.4754 14.4391C58.6692 13.0396 59.3379 13.0267 58.6754 12.0787C57.0568 9.76358 57.8693 8.1127 56.6319 3.86932C56.1882 2.34094 56.0819 1.06408 56.1132 -2.45279e-06L-1.80091e-05 0C0.0749746 0.380493 0.243707 0.902832 0.543678 1.72186Z" fill="#F5F5F5"/>
</svg>
