<svg width="20" height="20" viewBox="0 0 20 20" fill="none" xmlns="http://www.w3.org/2000/svg">
<path d="M6.60561 16.25C6.40437 16.25 6.24192 16.0876 6.24192 15.8863V15.159C6.24192 14.8244 5.97037 14.5528 5.63578 14.5528H3.69612C3.36153 14.5528 3.08998 14.8244 3.08998 15.159V15.8863C3.08998 16.0876 2.92753 16.25 2.7263 16.25C2.52506 16.25 2.36261 16.0876 2.36261 15.8863V15.159C2.36261 14.4231 2.96027 13.8254 3.69612 13.8254H5.63578C6.37163 13.8254 6.96929 14.4231 6.96929 15.159V15.8863C6.96929 16.0876 6.80685 16.25 6.60561 16.25Z" fill="#484848"/>
<path d="M4.66594 13.098C3.79673 13.098 3.08997 12.3913 3.08997 11.5221C3.08997 10.6529 3.79673 9.94611 4.66594 9.94611C5.53514 9.94611 6.24191 10.6529 6.24191 11.5221C6.24191 12.3913 5.53514 13.098 4.66594 13.098ZM4.66594 10.6735C4.19799 10.6735 3.81734 11.0541 3.81734 11.5221C3.81734 11.99 4.19799 12.3707 4.66594 12.3707C5.13388 12.3707 5.51453 11.99 5.51453 11.5221C5.51453 11.0541 5.13388 10.6735 4.66594 10.6735Z" fill="#484848"/>
<path d="M11.9397 16.25C11.7384 16.25 11.576 16.0876 11.576 15.8863V15.159C11.576 14.8244 11.3044 14.5528 10.9698 14.5528H9.03017C8.69558 14.5528 8.42403 14.8244 8.42403 15.159V15.8863C8.42403 16.0876 8.26158 16.25 8.06034 16.25C7.8591 16.25 7.69666 16.0876 7.69666 15.8863V15.159C7.69666 14.4231 8.29431 13.8254 9.03017 13.8254H10.9698C11.7057 13.8254 12.3033 14.4231 12.3033 15.159V15.8863C12.3033 16.0876 12.1409 16.25 11.9397 16.25Z" fill="#484848"/>
<path d="M10 13.098C9.1308 13.098 8.42404 12.3913 8.42404 11.5221C8.42404 10.6529 9.1308 9.94611 10 9.94611C10.8692 9.94611 11.576 10.6529 11.576 11.5221C11.576 12.3913 10.8692 13.098 10 13.098ZM10 10.6735C9.53207 10.6735 9.15141 11.0541 9.15141 11.5221C9.15141 11.99 9.53207 12.3707 10 12.3707C10.468 12.3707 10.8486 11.99 10.8486 11.5221C10.8486 11.0541 10.468 10.6735 10 10.6735Z" fill="#484848"/>
<path d="M17.2737 16.25C17.0725 16.25 16.91 16.0876 16.91 15.8863V15.159C16.91 14.8244 16.6385 14.5528 16.3039 14.5528H14.3642C14.0296 14.5528 13.7581 14.8244 13.7581 15.159V15.8863C13.7581 16.0876 13.5956 16.25 13.3944 16.25C13.1931 16.25 13.0307 16.0876 13.0307 15.8863V15.159C13.0307 14.4231 13.6284 13.8254 14.3642 13.8254H16.3039C17.0397 13.8254 17.6374 14.4231 17.6374 15.159V15.8863C17.6374 16.0876 17.4749 16.25 17.2737 16.25Z" fill="#484848"/>
<path d="M15.3341 13.098C14.4648 13.098 13.7581 12.3913 13.7581 11.5221C13.7581 10.6529 14.4648 9.94611 15.3341 9.94611C16.2033 9.94611 16.91 10.6529 16.91 11.5221C16.91 12.3913 16.2033 13.098 15.3341 13.098ZM15.3341 10.6735C14.8661 10.6735 14.4855 11.0541 14.4855 11.5221C14.4855 11.99 14.8661 12.3707 15.3341 12.3707C15.802 12.3707 16.1827 11.99 16.1827 11.5221C16.1827 11.0541 15.802 10.6735 15.3341 10.6735Z" fill="#484848"/>
<path d="M7.33299 9.21877C6.46378 9.21877 5.75702 8.51201 5.75702 7.6428C5.75702 6.7736 6.46378 6.06683 7.33299 6.06683C8.2022 6.06683 8.90896 6.7736 8.90896 7.6428C8.90896 8.51201 8.2022 9.21877 7.33299 9.21877ZM7.33299 6.7942C6.86505 6.7942 6.48439 7.17486 6.48439 7.6428C6.48439 8.11074 6.86505 8.4914 7.33299 8.4914C7.80093 8.4914 8.18159 8.11074 8.18159 7.6428C8.18159 7.17486 7.80093 6.7942 7.33299 6.7942Z" fill="#484848"/>
<path d="M12.667 9.21877C11.7978 9.21877 11.0911 8.51201 11.0911 7.6428C11.0911 6.7736 11.7978 6.06683 12.667 6.06683C13.5362 6.06683 14.243 6.7736 14.243 7.6428C14.243 8.51201 13.5362 9.21877 12.667 9.21877ZM12.667 6.7942C12.1991 6.7942 11.8184 7.17486 11.8184 7.6428C11.8184 8.11074 12.1991 8.4914 12.667 8.4914C13.135 8.4914 13.5156 8.11074 13.5156 7.6428C13.5156 7.17486 13.135 6.7942 12.667 6.7942Z" fill="#484848"/>
<path d="M10 5.33944C9.1308 5.33944 8.42404 4.63268 8.42404 3.76347C8.42404 2.89426 9.1308 2.1875 10 2.1875C10.8692 2.1875 11.576 2.89426 11.576 3.76347C11.576 4.63268 10.8692 5.33944 10 5.33944ZM10 2.91487C9.53207 2.91487 9.15141 3.29553 9.15141 3.76347C9.15141 4.23141 9.53207 4.61207 10 4.61207C10.468 4.61207 10.8486 4.23141 10.8486 3.76347C10.8486 3.29553 10.468 2.91487 10 2.91487Z" fill="#484848"/>
</svg>
