<svg width="14" height="14" viewBox="0 0 14 14" fill="none" xmlns="http://www.w3.org/2000/svg">
<path d="M10.2194 13.9446C9.67678 13.9406 9.13658 13.8725 8.60998 13.7417C6.79147 13.303 4.91884 12.1899 3.33792 10.6076C1.75699 9.0253 0.642574 7.15233 0.203813 5.33555C-0.258187 3.42442 0.0713176 1.78939 1.13059 0.730119L1.43304 0.427669C1.70745 0.153808 2.0793 0 2.46699 0C2.85467 0 3.22652 0.153808 3.50094 0.427669L5.23898 2.16537C5.51301 2.43969 5.66694 2.81158 5.66694 3.19932C5.66694 3.58706 5.51301 3.95895 5.23898 4.23327L4.21232 5.25959C4.70449 6.12324 5.37391 6.98758 6.16506 7.77873C6.95622 8.56989 7.82126 9.23965 8.68456 9.73183L9.71088 8.70516C9.84664 8.56935 10.0078 8.46161 10.1852 8.38811C10.3626 8.31461 10.5528 8.27678 10.7448 8.27678C10.9369 8.27678 11.127 8.31461 11.3044 8.38811C11.4818 8.46161 11.643 8.56935 11.7788 8.70516L13.5165 10.4429C13.7906 10.7171 13.9445 11.0889 13.9445 11.4766C13.9445 11.8644 13.7906 12.2362 13.5165 12.5104L13.2137 12.8129C12.4669 13.561 11.4333 13.9446 10.2194 13.9446ZM2.46699 1.03985C2.41161 1.03958 2.35673 1.05036 2.30557 1.07156C2.25441 1.09276 2.20799 1.12396 2.16905 1.16333L1.86625 1.46578C1.07301 2.25902 0.841317 3.54686 1.21383 5.08998C1.60819 6.72467 2.62341 8.42318 4.07219 9.87161C5.52097 11.32 7.21913 12.3342 8.85417 12.73C10.3976 13.1025 11.6848 12.8708 12.478 12.0775L12.7805 11.7751C12.8595 11.696 12.9039 11.5888 12.9039 11.477C12.9039 11.3652 12.8595 11.258 12.7805 11.1789L11.0431 9.44117C10.964 9.36215 10.8568 9.31776 10.745 9.31776C10.6332 9.31776 10.526 9.36215 10.4469 9.44117L9.14586 10.7422C9.0678 10.8203 8.9669 10.8715 8.85778 10.8885C8.74866 10.9055 8.63697 10.8873 8.53888 10.8365C7.47233 10.285 6.3971 9.4821 5.4294 8.5144C4.4617 7.54669 3.66049 6.47216 3.10761 5.40561C3.05684 5.30755 3.03858 5.19589 3.05548 5.08677C3.07238 4.97765 3.12355 4.87674 3.20161 4.79863L4.50298 3.49761C4.582 3.41852 4.62639 3.31129 4.62639 3.19949C4.62639 3.08769 4.582 2.98047 4.50298 2.90138L2.76527 1.16333C2.7262 1.12403 2.67972 1.09288 2.62851 1.07168C2.57731 1.05049 2.5224 1.03967 2.46699 1.03985Z" fill="#D6AB3D"/>
<path d="M10.775 7.69004C10.637 7.69004 10.5047 7.63523 10.4071 7.53766C10.3096 7.44009 10.2547 7.30775 10.2547 7.16977C10.2537 6.25705 9.89074 5.382 9.24538 4.73658C8.60002 4.09116 7.72501 3.72807 6.81229 3.72697C6.67431 3.72697 6.54198 3.67216 6.44441 3.57459C6.34684 3.47702 6.29202 3.34469 6.29202 3.2067C6.29202 3.06872 6.34684 2.93638 6.44441 2.83882C6.54198 2.74125 6.67431 2.68643 6.81229 2.68643C9.28427 2.68643 11.2953 4.69814 11.2953 7.16977C11.2953 7.30775 11.2405 7.44009 11.1429 7.53766C11.0453 7.63523 10.913 7.69004 10.775 7.69004Z" fill="#D6AB3D"/>
<path d="M12.974 7.68983C12.836 7.68983 12.7037 7.63501 12.6061 7.53744C12.5086 7.43987 12.4538 7.30754 12.4538 7.16956C12.4538 4.05869 9.92177 1.52775 6.81229 1.52775C6.67431 1.52775 6.54198 1.47294 6.44441 1.37537C6.34684 1.2778 6.29202 1.14547 6.29202 1.00748C6.29202 0.869499 6.34684 0.737166 6.44441 0.639597C6.54198 0.542027 6.67431 0.487213 6.81229 0.487213C10.4968 0.487213 13.4943 3.48501 13.4943 7.16956C13.4943 7.30754 13.4395 7.43987 13.3419 7.53744C13.2443 7.63501 13.112 7.68983 12.974 7.68983Z" fill="#D6AB3D"/>
</svg>
