<svg width="18" height="18" viewBox="0 0 18 18" fill="none" xmlns="http://www.w3.org/2000/svg">
<g clip-path="url(#clip0_729_903)">
<path d="M15.7184 0H2.21838C0.979126 0 -0.0316162 1.01074 -0.0316162 2.21836V12.3117C-0.0316162 13.551 0.979126 14.5301 2.21838 14.5301H5.59338V17.4825C5.59338 17.8283 5.98081 18.0292 6.26557 17.8235L10.6566 14.5301H15.7191C16.9583 14.5301 17.9691 13.5193 17.9691 12.3117V2.21836C17.9684 1.01074 16.9875 0 15.7184 0ZM16.3125 12.375C16.3125 12.6826 16.0576 12.9375 15.75 12.9375H10.125L7.31252 15.0469V12.9375H2.25002C1.94241 12.9375 1.68752 12.6826 1.68752 12.375V2.25C1.68752 1.94238 1.94241 1.6875 2.25002 1.6875H15.75C16.0576 1.6875 16.3125 1.94238 16.3125 2.25V12.375Z" fill="white"/>
</g>
<defs>
<clipPath id="clip0_729_903">
<rect width="18" height="18" fill="white"/>
</clipPath>
</defs>
</svg>
