<svg width="20" height="20" viewBox="0 0 20 20" fill="none" xmlns="http://www.w3.org/2000/svg">
<path d="M14.4114 3.43793H5.58869C4.57533 3.43793 3.75037 4.30349 3.75037 5.36817V14.6327C3.75037 15.6967 4.57472 16.5629 5.58869 16.5629H14.412C15.4254 16.5629 16.2504 15.6974 16.2504 14.6327V5.36817C16.2498 4.30349 15.4254 3.43793 14.4114 3.43793ZM15.5144 14.632C15.5144 15.2703 15.0199 15.7902 14.4114 15.7902H5.58869C4.98079 15.7902 4.4857 15.271 4.4857 14.632V13.2357L7.45262 9.77411L11.4604 13.5994L13.6767 11.6602L15.515 13.2684L15.5144 14.632ZM15.5144 12.2639L13.6761 10.6557L11.4805 12.5763L7.4008 8.68127L4.4857 12.0821V5.36817C4.4857 4.72988 4.98018 4.21002 5.58869 4.21002H14.412C15.0199 4.21002 15.515 4.72924 15.515 5.36817L15.5144 12.2639Z" fill="#484848"/>
<path d="M12.5004 9.06293C13.5339 9.06293 14.3754 8.22213 14.3754 7.18793C14.3754 6.15372 13.5346 5.31293 12.5004 5.31293C11.4668 5.31293 10.6254 6.15372 10.6254 7.18793C10.6254 8.22213 11.4662 9.06293 12.5004 9.06293ZM12.5004 6.06355C13.1204 6.06355 13.6254 6.5679 13.6254 7.18855C13.6254 7.8092 13.121 8.31355 12.5004 8.31355C11.8797 8.31355 11.3754 7.8092 11.3754 7.18855C11.3754 6.5679 11.8797 6.06355 12.5004 6.06355Z" fill="#484848"/>
</svg>
