<svg width="20" height="20" viewBox="0 0 20 20" fill="none" xmlns="http://www.w3.org/2000/svg">
<path d="M4.62891 8.04688H5.60547V7.07031H4.62891V8.04688ZM8.53516 7.07031H9.51172V6.09375H8.53516V7.07031ZM10.4883 7.07031H11.4648V6.09375H10.4883V7.07031ZM12.4414 7.07031H13.418V6.09375H12.4414V7.07031ZM8.53516 5.11719H9.51172V4.14062H8.53516V5.11719ZM10.4883 5.11719H11.4648V4.14062H10.4883V5.11719ZM12.4414 5.11719H13.418V4.14062H12.4414V5.11719ZM8.53516 10.9766H9.51172V10H8.53516V10.9766ZM10.4883 10.9766H11.4648V10H10.4883V10.9766ZM12.4414 10.9766H13.418V10H12.4414V10.9766ZM8.53516 12.9297H9.51172V11.9531H8.53516V12.9297ZM12.4414 12.9297H13.418V11.9531H12.4414V12.9297ZM8.53516 14.8828H9.51172V13.9062H8.53516V14.8828ZM12.4414 14.8828H13.418V13.9062H12.4414V14.8828ZM15.3711 13.9062H16.3477V12.9297H15.3711V13.9062ZM15.3711 10.9766V11.9531H16.3477V10.9766H15.3711ZM15.3711 15.8594H16.3477V14.8828H15.3711V15.8594ZM8.53516 9.02344H9.51172V8.04688H8.53516V9.02344ZM10.4883 9.02344H11.4648V8.04688H10.4883V9.02344ZM12.4414 9.02344H13.418V8.04688H12.4414V9.02344ZM4.62891 10H5.60547V9.02344H4.62891V10ZM4.62891 11.9531H5.60547V10.9766H4.62891V11.9531ZM4.62891 13.9062H5.60547V12.9297H4.62891V13.9062ZM4.62891 15.8594H5.60547V14.8828H4.62891V15.8594ZM10.4883 12.9297H11.4648V11.9531H10.4883V12.9297Z" fill="#484848"/>
<path fill-rule="evenodd" clip-rule="evenodd" d="M17.5 16.8359C17.5 17.3757 17.0527 17.8125 16.5 17.8125H3.5C2.94725 17.8125 2.5 17.3757 2.5 16.8359V6.09375C2.5 5.55396 2.94725 5.11719 3.5 5.11719H6.5V3.16406C6.5 2.62427 6.94725 2.1875 7.5 2.1875H14.5C15.0527 2.1875 15.5 2.62427 15.5 3.16406V9.02344H16.5C17.0527 9.02344 17.5 9.46021 17.5 10V16.8359ZM6.5 6.09375H3.5V16.8359H6.5V6.09375ZM14.5 3.16406H7.5V16.8359H10.5V13.9062H11.5V16.8359H14.5V3.16406ZM16.5 10H15.5V16.8359H16.5V10Z" fill="#484848"/>
</svg>
