<svg width="43" height="44" viewBox="0 0 43 44" fill="none" xmlns="http://www.w3.org/2000/svg">
<path d="M13 0.375H43.125V43.125H13C6.02741 43.125 0.375 37.4726 0.375 30.5V13L0.378906 12.6738C0.551904 5.85198 6.13646 0.375 13 0.375Z" fill="#C19A5D"/>
<path d="M13 0.375H43.125V43.125H13C6.02741 43.125 0.375 37.4726 0.375 30.5V13L0.378906 12.6738C0.551904 5.85198 6.13646 0.375 13 0.375Z" stroke="white" stroke-width="0.75"/>
<g clip-path="url(#clip0_1051_1401)">
<path d="M29.9609 10.75H13.4609C11.9463 10.75 10.7109 11.9854 10.7109 13.4613V25.7977C10.7109 27.3123 11.9463 28.509 13.4609 28.509H17.5859V32.1175C17.5859 32.5401 18.0595 32.7857 18.4075 32.5343L23.7743 28.509H29.9618C31.4764 28.509 32.7118 27.2736 32.7118 25.7977V13.4613C32.7109 11.9854 31.5121 10.75 29.9609 10.75ZM30.6871 25.875C30.6871 26.251 30.3756 26.5625 29.9996 26.5625H23.1246L19.6871 29.1406V26.5625H13.4996C13.1236 26.5625 12.8121 26.251 12.8121 25.875V13.5C12.8121 13.124 13.1236 12.8125 13.4996 12.8125H29.9996C30.3756 12.8125 30.6871 13.124 30.6871 13.5V25.875Z" fill="white"/>
</g>
<defs>
<clipPath id="clip0_1051_1401">
<rect width="22" height="22" fill="white" transform="translate(10.75 10.75)"/>
</clipPath>
</defs>
</svg>
