<svg width="43" height="44" viewBox="0 0 43 44" fill="none" xmlns="http://www.w3.org/2000/svg">
<path d="M13 0.375H43.125V43.125H13C6.02741 43.125 0.375 37.4726 0.375 30.5V13L0.378906 12.6738C0.551904 5.85198 6.13646 0.375 13 0.375Z" fill="#006A54"/>
<path d="M13 0.375H43.125V43.125H13C6.02741 43.125 0.375 37.4726 0.375 30.5V13L0.378906 12.6738C0.551904 5.85198 6.13646 0.375 13 0.375Z" stroke="white" stroke-width="0.75"/>
<path d="M21.75 11.9063C20.0541 11.9053 18.3868 12.3428 16.9098 13.1762C15.4328 14.0096 14.1963 15.2106 13.3204 16.6628C12.4444 18.115 11.9587 19.7689 11.9104 21.4641C11.8621 23.1593 12.2528 24.8382 13.0446 26.3379L11.9062 30.8906L15.5857 29.419C16.8122 30.4059 18.2574 31.0843 19.8003 31.3973C21.3431 31.7102 22.9385 31.6486 24.4526 31.2175C25.9666 30.7864 27.3553 29.9985 28.5019 28.9199C29.6485 27.8412 30.5197 26.5033 31.0424 25.0183C31.5651 23.5334 31.724 21.9447 31.5058 20.3857C31.2877 18.8266 30.6987 17.3426 29.7885 16.0582C28.8782 14.7738 27.6732 13.7265 26.2745 13.004C24.8758 12.2816 23.3242 11.9051 21.75 11.9063Z" stroke="white" stroke-width="1.5" stroke-linejoin="round"/>
<path d="M22.7792 23.7034L23.7734 22.7092C24.0375 22.4464 24.395 22.2989 24.7676 22.2989C25.1402 22.2989 25.4977 22.4464 25.7618 22.7092L26.756 23.7034C27.0188 23.9675 27.1663 24.325 27.1663 24.6976C27.1663 25.0702 27.0188 25.4277 26.756 25.6918L25.7618 26.6867C25.7618 26.6867 23.2763 29.1723 18.8009 24.6976C14.3255 20.2229 16.8117 17.7367 16.8117 17.7367L17.8067 16.7417C18.071 16.4793 18.4284 16.332 18.8009 16.332C19.1734 16.332 19.5308 16.4793 19.7951 16.7417L20.7893 17.7367C21.0521 18.0008 21.1996 18.3583 21.1996 18.7309C21.1996 19.1035 21.0521 19.4609 20.7893 19.7251L19.7951 20.7193L22.7792 23.7034Z" stroke="white" stroke-width="1.5" stroke-linejoin="round"/>
</svg>
