<svg width="20" height="20" viewBox="0 0 20 20" fill="none" xmlns="http://www.w3.org/2000/svg">
<path d="M3.33398 16.2498V3.74984C3.33398 3.1973 3.55348 2.6674 3.94418 2.2767C4.33488 1.886 4.86478 1.6665 5.41732 1.6665H15.834C16.055 1.6665 16.267 1.7543 16.4232 1.91058C16.5795 2.06686 16.6673 2.27882 16.6673 2.49984V17.4998C16.6673 17.7209 16.5795 17.9328 16.4232 18.0891C16.267 18.2454 16.055 18.3332 15.834 18.3332H5.41732C4.86478 18.3332 4.33488 18.1137 3.94418 17.723C3.55348 17.3323 3.33398 16.8024 3.33398 16.2498ZM3.33398 16.2498C3.33398 15.6973 3.55348 15.1674 3.94418 14.7767C4.33488 14.386 4.86478 14.1665 5.41732 14.1665H16.6673" stroke="white" stroke-width="2" stroke-linecap="round" stroke-linejoin="round"/>
<path d="M7.5 7.91667L9.16667 9.58333L12.5 6.25" stroke="white" stroke-width="2" stroke-linecap="round" stroke-linejoin="round"/>
</svg>
