<svg width="24" height="24" viewBox="0 0 24 24" fill="none" xmlns="http://www.w3.org/2000/svg">
<path d="M20 10C20 14.993 14.461 20.193 12.601 21.799C12.4277 21.9293 12.2168 21.9998 12 21.9998C11.7832 21.9998 11.5723 21.9293 11.399 21.799C9.539 20.193 4 14.993 4 10C4 7.87827 4.84285 5.84344 6.34315 4.34315C7.84344 2.84285 9.87827 2 12 2C14.1217 2 16.1566 2.84285 17.6569 4.34315C19.1571 5.84344 20 7.87827 20 10Z" stroke="url(#paint0_linear_2325_1597)" stroke-width="2" stroke-linecap="round" stroke-linejoin="round"/>
<path d="M12 13C13.6569 13 15 11.6569 15 10C15 8.34315 13.6569 7 12 7C10.3431 7 9 8.34315 9 10C9 11.6569 10.3431 13 12 13Z" stroke="url(#paint1_linear_2325_1597)" stroke-width="2" stroke-linecap="round" stroke-linejoin="round"/>
<defs>
<linearGradient id="paint0_linear_2325_1597" x1="12" y1="2" x2="12" y2="21.9998" gradientUnits="userSpaceOnUse">
<stop stop-color="#E09B07"/>
<stop offset="1" stop-color="#A77200"/>
</linearGradient>
<linearGradient id="paint1_linear_2325_1597" x1="12" y1="7" x2="12" y2="13" gradientUnits="userSpaceOnUse">
<stop stop-color="#E09B07"/>
<stop offset="1" stop-color="#A77200"/>
</linearGradient>
</defs>
</svg>
