<svg width="20" height="20" viewBox="0 0 20 20" fill="none" xmlns="http://www.w3.org/2000/svg">
<g clip-path="url(#clip0_3105_1434)">
<path d="M17.7508 12.7498C17.9373 12.9356 18.0852 13.1564 18.1861 13.3995C18.2871 13.6426 18.3391 13.9033 18.3391 14.1665C18.3391 14.4297 18.2871 14.6904 18.1861 14.9335C18.0852 15.1766 17.9373 15.3974 17.7508 15.5832L15.5841 17.7498C15.3983 17.9363 15.1776 18.0842 14.9344 18.1852C14.6913 18.2861 14.4307 18.3381 14.1675 18.3381C13.9042 18.3381 13.6436 18.2861 13.4005 18.1852C13.1574 18.0842 12.9366 17.9363 12.7508 17.7498L2.25081 7.24983C1.87628 6.87348 1.66602 6.36413 1.66602 5.83317C1.66602 5.30221 1.87628 4.79285 2.25081 4.4165L4.41748 2.24984C4.79383 1.8753 5.30319 1.66504 5.83414 1.66504C6.3651 1.66504 6.87446 1.8753 7.25081 2.24984L17.7508 12.7498Z" stroke="white" stroke-width="2" stroke-linecap="round" stroke-linejoin="round"/>
<path d="M12.084 10.4167L13.7507 8.75" stroke="white" stroke-width="2" stroke-linecap="round" stroke-linejoin="round"/>
<path d="M9.58398 7.91667L11.2507 6.25" stroke="white" stroke-width="2" stroke-linecap="round" stroke-linejoin="round"/>
<path d="M7.08398 5.41667L8.75065 3.75" stroke="white" stroke-width="2" stroke-linecap="round" stroke-linejoin="round"/>
<path d="M14.584 12.9167L16.2507 11.25" stroke="white" stroke-width="2" stroke-linecap="round" stroke-linejoin="round"/>
</g>
<defs>
<clipPath id="clip0_3105_1434">
<rect width="20" height="20" fill="white"/>
</clipPath>
</defs>
</svg>
