<svg width="704" height="256" viewBox="0 0 704 256" fill="none" xmlns="http://www.w3.org/2000/svg">
<rect opacity="0.3" x="230.364" y="0.360161" width="296.591" height="180.554" rx="5.54457" transform="rotate(15.7746 230.364 0.360161)" fill="url(#paint0_linear_2961_1379)" stroke="#AFAFAF" stroke-width="0.583639" stroke-dasharray="2.92 2.92"/>
<rect opacity="0.6" x="236.344" y="38.9175" width="249.087" height="129.653" rx="5.54457" transform="rotate(10.6205 236.344 38.9175)" fill="url(#paint1_linear_2961_1379)" stroke="#AFAFAF" stroke-width="0.583639" stroke-dasharray="2.92 2.92"/>
<rect x="246.914" y="70.9929" width="204.566" height="89.0384" rx="11.5269" transform="rotate(5.70413 246.914 70.9929)" fill="white"/>
<rect x="246.914" y="70.9929" width="204.566" height="89.0384" rx="11.5269" transform="rotate(5.70413 246.914 70.9929)" stroke="#E9E9E9" stroke-width="0.29182"/>
<rect x="252.271" y="77.5402" width="192.601" height="77.0738" rx="5.54457" transform="rotate(5.70413 252.271 77.5402)" stroke="#AFAFAF" stroke-width="0.583639" stroke-dasharray="2.92 2.92"/>
<path d="M287.551 122.293L288.201 115.789L290.357 116.004C290.806 116.049 291.217 116.176 291.59 116.385C291.967 116.592 292.289 116.86 292.556 117.19C292.827 117.518 293.027 117.886 293.154 118.296C293.286 118.704 293.329 119.132 293.284 119.581C293.239 120.03 293.112 120.443 292.902 120.819C292.696 121.193 292.428 121.515 292.097 121.785C291.77 122.053 291.402 122.252 290.991 122.383C290.584 122.512 290.156 122.553 289.707 122.508L287.551 122.293ZM289.084 121.038L289.846 121.115C290.097 121.14 290.339 121.115 290.572 121.042C290.804 120.968 291.016 120.854 291.206 120.701C291.397 120.548 291.551 120.365 291.669 120.152C291.791 119.936 291.865 119.699 291.89 119.442C291.916 119.185 291.891 118.94 291.814 118.707C291.74 118.474 291.625 118.264 291.468 118.076C291.315 117.886 291.132 117.732 290.919 117.613C290.705 117.495 290.472 117.423 290.218 117.398L289.456 117.322L289.084 121.038ZM293.658 122.903L294.308 116.399L296.956 116.663C297.312 116.699 297.626 116.821 297.896 117.029C298.166 117.238 298.369 117.502 298.506 117.822C298.647 118.14 298.699 118.48 298.663 118.842C298.635 119.121 298.562 119.376 298.445 119.609C298.328 119.838 298.174 120.037 297.982 120.205C297.793 120.371 297.577 120.498 297.334 120.586L298.611 123.398L297.004 123.237L295.788 120.563L295.305 120.515L295.052 123.042L293.658 122.903ZM295.444 119.121L296.531 119.23C296.655 119.242 296.771 119.222 296.879 119.171C296.988 119.116 297.079 119.039 297.151 118.94C297.224 118.841 297.266 118.727 297.279 118.601C297.292 118.474 297.272 118.354 297.221 118.243C297.169 118.131 297.096 118.039 297 117.967C296.904 117.892 296.794 117.848 296.67 117.836L295.583 117.727L295.444 119.121ZM302.174 123.876C301.734 123.832 301.33 123.704 300.96 123.492C300.59 123.276 300.274 122.999 300.011 122.66C299.747 122.321 299.552 121.94 299.425 121.518C299.299 121.092 299.259 120.647 299.305 120.182C299.352 119.718 299.479 119.291 299.687 118.902C299.895 118.51 300.161 118.174 300.487 117.893C300.812 117.613 301.177 117.405 301.581 117.271C301.986 117.133 302.408 117.086 302.848 117.13C303.291 117.174 303.697 117.304 304.067 117.519C304.437 117.731 304.753 118.007 305.016 118.346C305.28 118.685 305.473 119.067 305.596 119.492C305.723 119.915 305.763 120.358 305.717 120.823C305.671 121.287 305.543 121.716 305.335 122.108C305.13 122.497 304.866 122.832 304.54 123.113C304.215 123.393 303.85 123.602 303.445 123.74C303.041 123.875 302.617 123.92 302.174 123.876ZM302.313 122.482C302.561 122.507 302.799 122.479 303.026 122.398C303.256 122.315 303.464 122.192 303.649 122.029C303.835 121.863 303.986 121.665 304.103 121.436C304.222 121.207 304.296 120.956 304.323 120.684C304.35 120.411 304.328 120.151 304.256 119.903C304.187 119.655 304.077 119.433 303.928 119.236C303.779 119.037 303.6 118.875 303.39 118.751C303.184 118.624 302.957 118.548 302.709 118.523C302.461 118.499 302.222 118.528 301.992 118.611C301.765 118.692 301.558 118.815 301.373 118.981C301.188 119.144 301.035 119.34 300.915 119.569C300.798 119.798 300.726 120.049 300.699 120.322C300.672 120.594 300.693 120.854 300.762 121.102C300.834 121.35 300.945 121.574 301.094 121.774C301.243 121.97 301.421 122.132 301.627 122.258C301.837 122.383 302.066 122.457 302.313 122.482ZM306.181 124.154L306.83 117.649L309.284 117.895C309.64 117.93 309.953 118.054 310.223 118.265C310.496 118.474 310.702 118.739 310.842 119.059C310.983 119.377 311.035 119.715 310.999 120.074C310.963 120.44 310.841 120.764 310.635 121.047C310.431 121.33 310.175 121.547 309.866 121.697C309.557 121.848 309.23 121.906 308.886 121.871L307.827 121.766L307.575 124.293L306.181 124.154ZM307.966 120.372L308.868 120.462C308.991 120.474 309.108 120.455 309.216 120.403C309.325 120.348 309.415 120.271 309.488 120.172C309.56 120.073 309.603 119.96 309.616 119.833C309.628 119.706 309.609 119.587 309.557 119.475C309.506 119.364 309.432 119.272 309.336 119.2C309.241 119.124 309.131 119.08 309.007 119.068L308.105 118.978L307.966 120.372ZM318.348 118.8L319.993 118.964L317.378 122.316L317.085 125.243L315.692 125.104L315.984 122.177L314.083 118.374L315.728 118.538L316.832 120.732L318.348 118.8ZM322.637 125.92C322.197 125.876 321.792 125.748 321.422 125.535C321.053 125.32 320.736 125.043 320.473 124.704C320.21 124.365 320.015 123.984 319.888 123.562C319.761 123.136 319.721 122.691 319.768 122.226C319.814 121.762 319.941 121.335 320.149 120.946C320.357 120.554 320.624 120.218 320.949 119.937C321.274 119.657 321.639 119.449 322.043 119.315C322.448 119.177 322.871 119.13 323.31 119.174C323.753 119.218 324.16 119.348 324.529 119.563C324.899 119.775 325.216 120.051 325.479 120.39C325.742 120.729 325.935 121.111 326.059 121.536C326.185 121.959 326.226 122.402 326.179 122.867C326.133 123.331 326.006 123.76 325.797 124.152C325.593 124.541 325.328 124.876 325.003 125.156C324.678 125.437 324.313 125.646 323.908 125.784C323.503 125.919 323.08 125.964 322.637 125.92ZM322.776 124.526C323.024 124.551 323.261 124.523 323.488 124.442C323.718 124.359 323.926 124.236 324.111 124.073C324.297 123.907 324.448 123.709 324.565 123.48C324.685 123.251 324.758 123 324.785 122.728C324.813 122.455 324.79 122.195 324.718 121.947C324.649 121.699 324.54 121.477 324.39 121.28C324.241 121.081 324.062 120.919 323.852 120.795C323.646 120.668 323.419 120.592 323.171 120.567C322.923 120.543 322.684 120.572 322.454 120.655C322.227 120.736 322.021 120.859 321.835 121.025C321.65 121.188 321.497 121.384 321.378 121.613C321.261 121.842 321.189 122.093 321.162 122.366C321.134 122.638 321.155 122.898 321.224 123.146C321.297 123.394 321.407 123.618 321.556 123.817C321.705 124.014 321.883 124.175 322.09 124.302C322.299 124.427 322.528 124.501 322.776 124.526ZM329.316 126.587C328.795 126.535 328.348 126.362 327.974 126.068C327.603 125.774 327.325 125.403 327.142 124.953C326.962 124.5 326.898 124.012 326.95 123.488L327.329 119.697L328.723 119.836L328.344 123.627C328.318 123.891 328.343 124.137 328.421 124.367C328.498 124.594 328.623 124.781 328.796 124.93C328.972 125.079 329.192 125.167 329.455 125.193C329.721 125.22 329.954 125.179 330.152 125.07C330.351 124.959 330.509 124.799 330.627 124.592C330.745 124.382 330.817 124.143 330.844 123.877L331.222 120.086L332.616 120.225L332.238 124.016C332.198 124.41 332.098 124.772 331.937 125.103C331.776 125.431 331.564 125.713 331.303 125.95C331.042 126.187 330.743 126.362 330.406 126.475C330.069 126.588 329.706 126.626 329.316 126.587ZM332.95 126.828L333.599 120.323L336.248 120.588C336.604 120.623 336.917 120.745 337.187 120.954C337.457 121.162 337.661 121.427 337.798 121.747C337.938 122.064 337.99 122.404 337.954 122.767C337.926 123.045 337.854 123.301 337.737 123.533C337.62 123.762 337.465 123.961 337.273 124.13C337.085 124.296 336.869 124.423 336.625 124.511L337.902 127.322L336.295 127.162L335.079 124.488L334.596 124.44L334.343 126.967L332.95 126.828ZM334.735 123.046L335.822 123.154C335.946 123.167 336.062 123.147 336.171 123.095C336.279 123.04 336.37 122.963 336.443 122.864C336.515 122.765 336.558 122.652 336.57 122.525C336.583 122.398 336.564 122.279 336.512 122.167C336.461 122.056 336.387 121.964 336.291 121.892C336.195 121.817 336.085 121.773 335.962 121.761L334.874 121.652L334.735 123.046ZM341.062 127.638L341.712 121.134L343.867 121.349C344.317 121.394 344.728 121.521 345.101 121.73C345.478 121.937 345.8 122.205 346.067 122.535C346.338 122.863 346.537 123.231 346.665 123.641C346.796 124.049 346.84 124.477 346.795 124.926C346.75 125.375 346.623 125.788 346.413 126.164C346.207 126.538 345.938 126.86 345.608 127.13C345.281 127.398 344.912 127.597 344.502 127.728C344.095 127.856 343.667 127.898 343.218 127.853L341.062 127.638ZM342.595 126.383L343.357 126.46C343.608 126.485 343.85 126.46 344.082 126.387C344.315 126.313 344.526 126.199 344.717 126.046C344.907 125.893 345.062 125.71 345.18 125.497C345.302 125.28 345.375 125.044 345.401 124.787C345.427 124.53 345.401 124.285 345.324 124.052C345.251 123.819 345.135 123.609 344.979 123.421C344.826 123.231 344.643 123.077 344.429 122.958C344.216 122.84 343.982 122.768 343.728 122.743L342.966 122.667L342.595 126.383ZM350.213 128.674C349.773 128.63 349.368 128.502 348.999 128.29C348.629 128.075 348.313 127.798 348.049 127.458C347.786 127.119 347.591 126.739 347.464 126.316C347.338 125.891 347.298 125.445 347.344 124.981C347.391 124.516 347.518 124.089 347.726 123.7C347.934 123.308 348.2 122.972 348.525 122.692C348.851 122.411 349.216 122.204 349.62 122.069C350.025 121.931 350.447 121.884 350.887 121.928C351.33 121.972 351.736 122.102 352.106 122.317C352.475 122.529 352.792 122.805 353.055 123.144C353.319 123.483 353.512 123.865 353.635 124.291C353.762 124.713 353.802 125.157 353.756 125.621C353.709 126.086 353.582 126.514 353.374 126.906C353.169 127.296 352.904 127.631 352.579 127.911C352.254 128.191 351.889 128.4 351.484 128.538C351.08 128.673 350.656 128.718 350.213 128.674ZM350.352 127.28C350.6 127.305 350.838 127.277 351.065 127.197C351.295 127.113 351.503 126.99 351.688 126.827C351.873 126.661 352.025 126.463 352.141 126.234C352.261 126.005 352.335 125.755 352.362 125.482C352.389 125.21 352.367 124.949 352.295 124.701C352.225 124.453 352.116 124.231 351.967 124.035C351.818 123.835 351.639 123.674 351.429 123.549C351.223 123.423 350.995 123.347 350.748 123.322C350.5 123.297 350.261 123.326 350.03 123.41C349.803 123.49 349.597 123.614 349.412 123.78C349.226 123.943 349.074 124.139 348.954 124.367C348.837 124.597 348.765 124.848 348.738 125.12C348.711 125.393 348.732 125.653 348.801 125.901C348.873 126.149 348.984 126.372 349.133 126.572C349.282 126.768 349.46 126.93 349.666 127.057C349.876 127.181 350.105 127.256 350.352 127.28ZM357.254 129.377C356.815 129.333 356.41 129.205 356.04 128.993C355.67 128.778 355.354 128.501 355.091 128.162C354.831 127.823 354.637 127.442 354.51 127.02C354.387 126.595 354.349 126.15 354.395 125.685C354.442 125.217 354.567 124.789 354.772 124.4C354.98 124.007 355.245 123.673 355.567 123.395C355.892 123.115 356.257 122.907 356.661 122.772C357.066 122.634 357.488 122.587 357.928 122.631C358.455 122.684 358.927 122.855 359.346 123.144C359.765 123.43 360.099 123.79 360.35 124.225L359.038 124.769C358.895 124.567 358.717 124.399 358.502 124.265C358.287 124.131 358.049 124.051 357.789 124.025C357.541 124 357.302 124.028 357.072 124.108C356.845 124.189 356.639 124.312 356.453 124.478C356.271 124.642 356.122 124.838 356.005 125.067C355.888 125.296 355.816 125.549 355.789 125.824C355.762 126.097 355.782 126.357 355.852 126.605C355.921 126.853 356.028 127.076 356.174 127.275C356.323 127.472 356.501 127.633 356.707 127.76C356.917 127.884 357.146 127.959 357.394 127.984C357.654 128.01 357.903 127.978 358.14 127.889C358.377 127.797 358.586 127.665 358.766 127.492L359.943 128.295C359.612 128.668 359.213 128.955 358.745 129.156C358.278 129.356 357.781 129.43 357.254 129.377ZM363.48 129.999C362.96 129.947 362.512 129.774 362.138 129.48C361.767 129.187 361.49 128.815 361.306 128.365C361.126 127.912 361.063 127.424 361.115 126.901L361.494 123.11L362.887 123.249L362.509 127.04C362.482 127.303 362.508 127.55 362.585 127.78C362.662 128.006 362.788 128.194 362.96 128.343C363.136 128.492 363.356 128.579 363.619 128.605C363.886 128.632 364.118 128.591 364.317 128.483C364.515 128.371 364.674 128.212 364.791 128.005C364.909 127.794 364.982 127.556 365.008 127.29L365.387 123.498L366.781 123.638L366.402 127.429C366.363 127.822 366.262 128.184 366.101 128.516C365.94 128.844 365.729 129.126 365.467 129.363C365.206 129.599 364.907 129.774 364.57 129.888C364.234 130.001 363.87 130.038 363.48 129.999ZM367.114 130.24L369.027 123.862L370.217 123.981L371.292 127.964L373.135 124.272L374.324 124.391L374.938 131.022L373.516 130.88L373.189 127.3L371.509 130.679L370.543 130.583L369.565 126.938L368.536 130.382L367.114 130.24ZM375.862 131.114L376.511 124.61L380.656 125.024L380.516 126.417L377.766 126.143L377.673 127.072L379.792 127.283L379.652 128.677L377.534 128.466L377.395 129.859L380.145 130.134L380.006 131.528L375.862 131.114ZM381.025 131.63L381.675 125.125L383.18 125.276L385.16 129.5L385.559 125.513L386.952 125.653L386.303 132.157L384.797 132.007L382.817 127.783L382.419 131.769L381.025 131.63ZM392.997 126.256L392.857 127.65L390.999 127.464L390.489 132.575L389.095 132.436L389.605 127.325L387.747 127.14L387.886 125.746L392.997 126.256ZM395.642 133.212C395.276 133.175 394.932 133.083 394.609 132.935C394.286 132.784 394.01 132.587 393.781 132.346C393.552 132.101 393.397 131.821 393.316 131.506L394.674 131.154C394.696 131.247 394.756 131.34 394.853 131.434C394.953 131.529 395.082 131.612 395.241 131.684C395.399 131.753 395.58 131.798 395.781 131.818C395.967 131.837 396.144 131.828 396.314 131.791C396.484 131.752 396.624 131.689 396.736 131.604C396.848 131.518 396.91 131.411 396.923 131.284C396.936 131.154 396.892 131.042 396.792 130.948C396.696 130.85 396.566 130.769 396.404 130.702C396.245 130.633 396.08 130.578 395.909 130.536C395.445 130.421 395.033 130.267 394.674 130.074C394.318 129.879 394.046 129.633 393.856 129.336C393.67 129.039 393.598 128.678 393.641 128.254C393.681 127.848 393.831 127.505 394.091 127.224C394.351 126.941 394.676 126.732 395.068 126.599C395.463 126.467 395.879 126.422 396.316 126.466C396.681 126.502 397.025 126.596 397.348 126.747C397.674 126.896 397.952 127.092 398.181 127.337C398.409 127.582 398.563 127.863 398.641 128.181L397.283 128.524C397.261 128.431 397.2 128.339 397.099 128.247C397.003 128.153 396.875 128.072 396.716 128.003C396.557 127.934 396.377 127.889 396.175 127.869C395.996 127.848 395.822 127.857 395.652 127.896C395.482 127.936 395.34 127.998 395.225 128.084C395.11 128.169 395.046 128.272 395.034 128.393C395.018 128.56 395.055 128.691 395.145 128.784C395.237 128.875 395.361 128.945 395.519 128.995C395.679 129.046 395.856 129.095 396.048 129.142C396.488 129.251 396.887 129.409 397.245 129.613C397.603 129.818 397.881 130.071 398.079 130.372C398.277 130.674 398.357 131.024 398.317 131.424C398.276 131.829 398.126 132.174 397.866 132.458C397.61 132.739 397.286 132.946 396.894 133.079C396.502 133.212 396.085 133.256 395.642 133.212Z" fill="black"/>
<path d="M347.916 113.317L345.893 113.115C345.748 113.101 345.615 113.03 345.523 112.917C345.432 112.805 345.388 112.661 345.402 112.516C345.417 112.372 345.488 112.239 345.6 112.147C345.713 112.056 345.857 112.012 346.001 112.026L348.025 112.229C348.696 112.287 349.363 112.08 349.881 111.65C350.399 111.221 350.728 110.604 350.795 109.934C350.861 109.265 350.662 108.595 350.238 108.072C349.815 107.548 349.203 107.213 348.534 107.138C348.465 107.131 348.392 107.127 348.31 107.126C348.206 107.125 348.105 107.094 348.018 107.037C347.931 106.98 347.862 106.9 347.819 106.805C347.516 106.135 347.013 105.575 346.379 105.201C345.746 104.827 345.013 104.657 344.279 104.714C343.546 104.772 342.848 105.053 342.28 105.521C341.713 105.989 341.303 106.621 341.107 107.33C341.072 107.458 340.991 107.569 340.88 107.642C340.77 107.715 340.636 107.745 340.504 107.727L340.466 107.723C340.219 107.692 339.968 107.711 339.729 107.779C339.489 107.846 339.265 107.961 339.071 108.116C338.876 108.271 338.715 108.464 338.596 108.683C338.477 108.901 338.403 109.141 338.378 109.389C338.353 109.637 338.378 109.887 338.451 110.125C338.525 110.363 338.645 110.583 338.805 110.774C338.964 110.965 339.161 111.122 339.382 111.236C339.604 111.349 339.846 111.418 340.094 111.436L342.806 111.707C342.95 111.722 343.083 111.793 343.175 111.905C343.267 112.017 343.31 112.162 343.296 112.306C343.281 112.45 343.21 112.583 343.098 112.675C342.986 112.767 342.841 112.811 342.697 112.796L339.985 112.525C339.238 112.45 338.546 112.093 338.052 111.527C337.558 110.961 337.297 110.228 337.323 109.477C337.349 108.726 337.659 108.013 338.191 107.482C338.723 106.952 339.437 106.643 340.188 106.619C340.506 105.784 341.058 105.057 341.777 104.525C342.496 103.994 343.352 103.679 344.244 103.62C345.136 103.56 346.027 103.757 346.81 104.188C347.594 104.619 348.237 105.266 348.664 106.051C349.621 106.159 350.496 106.64 351.1 107.39C351.704 108.139 351.988 109.097 351.889 110.055C351.79 111.012 351.318 111.892 350.574 112.503C349.83 113.114 348.875 113.407 347.916 113.317Z" fill="black"/>
<path d="M346.246 111.102C346.174 111.095 346.105 111.074 346.041 111.04C345.978 111.006 345.922 110.96 345.877 110.904L344.649 109.404L343.149 110.632C343.036 110.715 342.895 110.752 342.755 110.735C342.616 110.718 342.488 110.647 342.399 110.538C342.31 110.429 342.267 110.29 342.278 110.15C342.288 110.01 342.353 109.879 342.457 109.785L344.381 108.211C344.493 108.119 344.637 108.075 344.782 108.09C344.926 108.104 345.059 108.175 345.151 108.288L346.725 110.211C346.793 110.295 346.836 110.397 346.846 110.505C346.857 110.613 346.835 110.721 346.784 110.816C346.733 110.912 346.654 110.99 346.559 111.041C346.463 111.092 346.355 111.113 346.247 111.102L346.246 111.102Z" fill="black"/>
<path d="M344.075 115.159C343.93 115.144 343.798 115.073 343.706 114.961C343.614 114.848 343.57 114.704 343.585 114.56L344.182 108.58C344.196 108.435 344.268 108.303 344.38 108.211C344.492 108.119 344.636 108.075 344.781 108.09C344.925 108.104 345.058 108.175 345.15 108.288C345.242 108.4 345.285 108.544 345.271 108.689L344.674 114.669C344.659 114.813 344.588 114.946 344.476 115.038C344.363 115.129 344.219 115.173 344.075 115.159Z" fill="black"/>
<path d="M295.355 135.726L295.883 130.441L297.702 130.623C297.987 130.651 298.236 130.748 298.451 130.911C298.669 131.075 298.833 131.284 298.946 131.536C299.06 131.789 299.103 132.06 299.074 132.35C299.045 132.644 298.947 132.904 298.783 133.129C298.621 133.352 298.417 133.522 298.171 133.64C297.926 133.758 297.664 133.803 297.388 133.775L296.353 133.672L296.14 135.805L295.355 135.726ZM296.432 132.887L297.387 132.982C297.538 132.997 297.679 132.973 297.809 132.91C297.943 132.847 298.052 132.756 298.138 132.638C298.226 132.519 298.278 132.381 298.294 132.222C298.31 132.064 298.286 131.918 298.223 131.785C298.163 131.649 298.074 131.538 297.955 131.453C297.839 131.365 297.706 131.313 297.555 131.298L296.6 131.203L296.432 132.887ZM299.425 136.133L299.953 130.848L301.7 131.022C302.065 131.059 302.401 131.162 302.706 131.333C303.012 131.5 303.274 131.718 303.491 131.987C303.709 132.252 303.869 132.552 303.973 132.885C304.08 133.216 304.115 133.564 304.079 133.929C304.042 134.294 303.939 134.629 303.769 134.935C303.601 135.238 303.384 135.5 303.118 135.72C302.853 135.937 302.553 136.099 302.22 136.206C301.886 136.31 301.537 136.344 301.173 136.307L299.425 136.133ZM300.288 135.426L301.251 135.522C301.508 135.548 301.752 135.524 301.983 135.45C302.216 135.377 302.427 135.263 302.615 135.109C302.806 134.956 302.96 134.771 303.078 134.557C303.196 134.343 303.268 134.107 303.294 133.85C303.319 133.594 303.296 133.349 303.222 133.115C303.149 132.881 303.034 132.67 302.878 132.482C302.724 132.294 302.539 132.141 302.325 132.023C302.113 131.905 301.879 131.833 301.622 131.808L300.659 131.711L300.288 135.426ZM304.46 136.636L304.988 131.351L308.103 131.662L308.024 132.447L305.695 132.214L305.568 133.49L307.534 133.687L307.456 134.472L305.489 134.276L305.246 136.714L304.46 136.636ZM307.607 137.377L307.969 136.124L308.754 136.203L308.128 137.429L307.607 137.377ZM311.391 137.328L311.919 132.043L313.666 132.218C314.031 132.254 314.367 132.357 314.672 132.528C314.979 132.696 315.24 132.914 315.457 133.182C315.675 133.448 315.836 133.747 315.939 134.08C316.046 134.411 316.081 134.759 316.045 135.124C316.008 135.489 315.905 135.824 315.735 136.13C315.567 136.434 315.35 136.695 315.084 136.915C314.819 137.133 314.519 137.295 314.186 137.401C313.853 137.505 313.503 137.539 313.139 137.502L311.391 137.328ZM312.254 136.621L313.217 136.717C313.474 136.743 313.718 136.719 313.949 136.645C314.182 136.572 314.393 136.459 314.581 136.305C314.772 136.151 314.926 135.967 315.044 135.752C315.162 135.538 315.234 135.302 315.26 135.046C315.285 134.789 315.262 134.544 315.188 134.31C315.115 134.077 315 133.866 314.844 133.677C314.69 133.489 314.505 133.336 314.291 133.218C314.079 133.1 313.845 133.028 313.588 133.003L312.625 132.907L312.254 136.621ZM318.856 138.173C318.498 138.137 318.169 138.033 317.869 137.861C317.569 137.686 317.311 137.461 317.097 137.185C316.884 136.909 316.725 136.6 316.622 136.257C316.519 135.911 316.487 135.549 316.525 135.172C316.562 134.794 316.666 134.448 316.834 134.132C317.003 133.813 317.22 133.54 317.484 133.312C317.749 133.084 318.045 132.916 318.374 132.806C318.703 132.694 319.046 132.656 319.403 132.692C319.763 132.727 320.093 132.833 320.393 133.008C320.694 133.18 320.951 133.404 321.165 133.68C321.379 133.955 321.536 134.266 321.636 134.611C321.739 134.954 321.772 135.315 321.734 135.692C321.696 136.07 321.593 136.418 321.424 136.736C321.257 137.053 321.042 137.325 320.778 137.553C320.514 137.78 320.217 137.95 319.888 138.062C319.56 138.172 319.215 138.209 318.856 138.173ZM318.934 137.387C319.186 137.413 319.426 137.385 319.655 137.303C319.885 137.222 320.091 137.1 320.275 136.938C320.462 136.774 320.613 136.579 320.73 136.354C320.849 136.127 320.922 135.881 320.949 135.614C320.975 135.347 320.953 135.091 320.881 134.845C320.811 134.599 320.701 134.378 320.55 134.182C320.402 133.985 320.224 133.825 320.015 133.702C319.806 133.577 319.576 133.502 319.325 133.477C319.073 133.452 318.832 133.48 318.603 133.561C318.374 133.642 318.166 133.765 317.979 133.929C317.795 134.092 317.644 134.286 317.525 134.513C317.408 134.738 317.336 134.984 317.31 135.25C317.283 135.52 317.304 135.777 317.374 136.023C317.446 136.267 317.556 136.487 317.704 136.685C317.855 136.881 318.035 137.041 318.243 137.166C318.452 137.288 318.682 137.362 318.934 137.387ZM324.606 138.747C324.249 138.711 323.92 138.607 323.619 138.435C323.319 138.26 323.062 138.036 322.848 137.763C322.636 137.488 322.479 137.177 322.377 136.832C322.276 136.486 322.245 136.125 322.283 135.747C322.32 135.37 322.423 135.021 322.589 134.703C322.758 134.384 322.974 134.112 323.235 133.886C323.499 133.659 323.796 133.49 324.124 133.38C324.453 133.268 324.796 133.23 325.154 133.266C325.581 133.309 325.965 133.447 326.305 133.682C326.645 133.917 326.917 134.211 327.121 134.564L326.385 134.868C326.242 134.646 326.056 134.46 325.827 134.313C325.598 134.166 325.347 134.078 325.075 134.051C324.824 134.026 324.583 134.054 324.354 134.135C324.125 134.217 323.918 134.338 323.734 134.5C323.55 134.663 323.4 134.857 323.283 135.084C323.166 135.312 323.095 135.559 323.068 135.826C323.041 136.095 323.062 136.352 323.132 136.598C323.202 136.842 323.31 137.062 323.458 137.26C323.609 137.455 323.789 137.616 323.998 137.741C324.206 137.863 324.435 137.937 324.685 137.962C324.961 137.99 325.226 137.954 325.477 137.854C325.731 137.753 325.949 137.607 326.131 137.416L326.791 137.867C326.521 138.173 326.197 138.408 325.817 138.571C325.438 138.731 325.034 138.79 324.606 138.747ZM327.34 138.921L329.542 136.457L327.891 133.638L328.861 133.735L330.092 135.841L331.718 134.021L332.689 134.118L330.516 136.554L332.183 139.405L331.209 139.307L329.958 137.177L328.318 139.019L327.34 138.921ZM332.667 139.88L333.029 138.628L333.814 138.706L333.188 139.932L332.667 139.88ZM340.976 134.946L340.898 135.731L339.214 135.563L338.765 140.062L337.98 139.984L338.429 135.484L336.749 135.316L336.828 134.531L340.976 134.946ZM340.98 140.283L343.182 137.819L341.53 135.001L342.501 135.098L343.731 137.203L345.358 135.383L346.328 135.48L344.156 137.917L345.823 140.767L344.849 140.67L343.598 138.54L341.958 140.381L340.98 140.283ZM351.026 135.949L350.947 136.734L349.263 136.566L348.814 141.066L348.029 140.988L348.478 136.488L346.799 136.32L346.877 135.535L351.026 135.949ZM353.06 140.06L353.295 137.701L354.08 137.779L353.864 139.946C353.847 140.115 353.873 140.273 353.943 140.419C354.012 140.566 354.111 140.688 354.242 140.785C354.372 140.879 354.52 140.934 354.686 140.951C354.855 140.968 355.011 140.943 355.155 140.876C355.302 140.807 355.422 140.707 355.517 140.576C355.614 140.446 355.67 140.297 355.687 140.128L355.904 137.962L356.689 138.04L356.316 141.815L355.53 141.737L355.567 141.329C355.423 141.472 355.251 141.579 355.051 141.651C354.851 141.722 354.641 141.747 354.422 141.725C354.143 141.697 353.895 141.604 353.68 141.445C353.465 141.286 353.3 141.086 353.187 140.843C353.074 140.601 353.032 140.34 353.06 140.06ZM357.529 143.843L356.744 143.764L357.31 138.102L358.095 138.18L358.039 138.735C358.185 138.554 358.361 138.413 358.57 138.312C358.778 138.211 359.016 138.173 359.282 138.2C359.557 138.227 359.808 138.305 360.037 138.432C360.268 138.559 360.465 138.723 360.628 138.925C360.791 139.125 360.912 139.349 360.992 139.598C361.071 139.848 361.097 140.11 361.07 140.384C361.042 140.658 360.965 140.911 360.838 141.142C360.71 141.374 360.547 141.572 360.347 141.738C360.148 141.901 359.922 142.022 359.67 142.101C359.421 142.18 359.159 142.206 358.885 142.179C358.618 142.152 358.393 142.068 358.208 141.928C358.024 141.785 357.879 141.612 357.772 141.408L357.529 143.843ZM359.199 138.958C358.98 138.936 358.782 138.972 358.605 139.066C358.428 139.16 358.283 139.296 358.172 139.473C358.06 139.647 357.993 139.848 357.97 140.074C357.948 140.301 357.974 140.512 358.048 140.707C358.123 140.903 358.238 141.064 358.393 141.192C358.548 141.319 358.735 141.393 358.954 141.415C359.17 141.437 359.374 141.403 359.566 141.313C359.758 141.22 359.918 141.086 360.045 140.911C360.172 140.735 360.246 140.533 360.269 140.304C360.292 140.08 360.258 139.869 360.168 139.672C360.081 139.476 359.953 139.313 359.783 139.184C359.612 139.055 359.418 138.98 359.199 138.958ZM365.668 139.73L364.875 139.651L364.573 142.64L363.788 142.562L364.09 139.572L363.49 139.512L363.568 138.727L364.169 138.787L364.283 137.601L365.068 137.68L364.954 138.866L365.747 138.945L365.668 139.73ZM367.608 143.042C367.261 143.008 366.953 142.887 366.683 142.679C366.417 142.472 366.213 142.21 366.072 141.894C365.933 141.575 365.882 141.233 365.919 140.868C365.947 140.591 366.021 140.338 366.143 140.109C366.266 139.877 366.421 139.679 366.611 139.515C366.803 139.349 367.018 139.226 367.258 139.145C367.497 139.065 367.746 139.038 368.005 139.064C368.353 139.098 368.66 139.219 368.926 139.426C369.195 139.634 369.399 139.897 369.537 140.216C369.678 140.535 369.73 140.878 369.694 141.245C369.666 141.52 369.592 141.771 369.47 142.001C369.348 142.23 369.191 142.428 368.999 142.594C368.809 142.758 368.595 142.88 368.356 142.961C368.119 143.041 367.87 143.068 367.608 143.042ZM367.686 142.257C367.895 142.278 368.088 142.241 368.265 142.147C368.443 142.053 368.588 141.92 368.702 141.749C368.818 141.575 368.887 141.381 368.909 141.167C368.93 140.948 368.9 140.742 368.818 140.548C368.738 140.354 368.621 140.195 368.465 140.07C368.31 139.943 368.131 139.869 367.927 139.849C367.721 139.828 367.528 139.865 367.348 139.959C367.171 140.053 367.024 140.187 366.907 140.361C366.793 140.535 366.726 140.73 366.704 140.947C366.682 141.171 366.712 141.378 366.794 141.569C366.877 141.761 366.996 141.919 367.151 142.044C367.309 142.166 367.488 142.237 367.686 142.257ZM373.582 143.639C373.247 143.606 372.952 143.495 372.697 143.307C372.444 143.116 372.251 142.878 372.12 142.593C371.991 142.306 371.942 142.001 371.975 141.679L372.76 141.757C372.741 141.941 372.77 142.113 372.845 142.273C372.921 142.433 373.03 142.566 373.172 142.672C373.314 142.775 373.477 142.836 373.661 142.854C373.842 142.872 374.012 142.845 374.172 142.772C374.332 142.696 374.465 142.587 374.571 142.445C374.676 142.303 374.738 142.141 374.757 141.957C374.775 141.773 374.75 141.602 374.682 141.442C374.615 141.281 374.502 141.146 374.345 141.039C374.188 140.929 373.982 140.861 373.725 140.836L372.392 140.703L373.187 138.163L375.743 138.418L375.665 139.203L373.747 139.012L373.437 140.014L373.893 140.067C374.252 140.111 374.56 140.225 374.816 140.411C375.074 140.594 375.269 140.827 375.398 141.11C375.528 141.39 375.576 141.698 375.542 142.035C375.517 142.279 375.448 142.505 375.333 142.712C375.219 142.917 375.071 143.093 374.892 143.24C374.714 143.387 374.513 143.497 374.287 143.568C374.064 143.64 373.829 143.664 373.582 143.639ZM378.092 143.99L379.643 138.808L380.277 138.871L381.277 142.566L382.98 139.141L383.614 139.204L384.113 144.592L383.313 144.512L382.983 140.907L381.385 144.117L380.857 144.065L379.929 140.602L378.893 144.07L378.092 143.99ZM384.883 144.669L385.411 139.384L387.23 139.566C387.515 139.594 387.764 139.69 387.979 139.854C388.197 140.018 388.361 140.226 388.473 140.479C388.588 140.732 388.631 141.003 388.602 141.292C388.572 141.587 388.475 141.847 388.31 142.072C388.148 142.294 387.945 142.465 387.699 142.582C387.453 142.7 387.192 142.745 386.915 142.718L385.881 142.614L385.668 144.747L384.883 144.669ZM385.959 141.829L386.914 141.925C387.065 141.94 387.206 141.916 387.337 141.852C387.471 141.789 387.58 141.699 387.666 141.58C387.754 141.462 387.806 141.324 387.821 141.165C387.837 141.006 387.814 140.86 387.751 140.727C387.691 140.591 387.601 140.481 387.483 140.395C387.367 140.308 387.234 140.256 387.083 140.241L386.128 140.146L385.959 141.829Z" fill="#A9A9A9"/>
<g filter="url(#filter0_dddd_2961_1379)">
<mask id="path-10-inside-1_2961_1379" fill="white">
<path d="M118.564 61.7121C119.555 61.3702 120.636 61.8966 120.978 62.8876C121.183 63.4821 121.831 63.7978 122.425 63.5927L146.831 55.1729C147.822 54.8312 148.902 55.3577 149.244 56.3487L156.147 76.3575C156.489 77.3484 155.963 78.4289 154.972 78.7709L123.299 89.6979C122.308 90.0398 121.228 89.5133 120.886 88.5224L112.992 65.6425C112.65 64.6515 113.177 63.5707 114.168 63.2288L118.564 61.7121Z"/>
</mask>
<path d="M118.564 61.7121C119.555 61.3702 120.636 61.8966 120.978 62.8876C121.183 63.4821 121.831 63.7978 122.425 63.5927L146.831 55.1729C147.822 54.8312 148.902 55.3577 149.244 56.3487L156.147 76.3575C156.489 77.3484 155.963 78.4289 154.972 78.7709L123.299 89.6979C122.308 90.0398 121.228 89.5133 120.886 88.5224L112.992 65.6425C112.65 64.6515 113.177 63.5707 114.168 63.2288L118.564 61.7121Z" fill="white"/>
<path d="M146.831 55.1729L146.8 55.0831L146.8 55.0832L146.831 55.1729ZM149.244 56.3487L149.334 56.3177L149.334 56.3177L149.244 56.3487ZM156.147 76.3575L156.237 76.3265L156.237 76.3265L156.147 76.3575ZM154.972 78.7709L155.003 78.8606L155.003 78.8606L154.972 78.7709ZM120.886 88.5224L120.796 88.5533L120.796 88.5533L120.886 88.5224ZM112.992 65.6425L112.902 65.6735L112.992 65.6425ZM118.564 61.7121L118.595 61.8019C119.536 61.477 120.563 61.9771 120.888 62.9186L120.978 62.8876L121.067 62.8567C120.708 61.8161 119.573 61.2634 118.533 61.6224L118.564 61.7121ZM122.425 63.5927L122.456 63.6824L146.862 55.2626L146.831 55.1729L146.8 55.0832L122.394 63.503L122.425 63.5927ZM146.831 55.1729L146.862 55.2626C147.804 54.938 148.83 55.4382 149.154 56.3797L149.244 56.3487L149.334 56.3177C148.975 55.2773 147.841 54.7244 146.8 55.0831L146.831 55.1729ZM149.244 56.3487L149.154 56.3797L156.057 76.3884L156.147 76.3575L156.237 76.3265L149.334 56.3177L149.244 56.3487ZM156.147 76.3575L156.057 76.3884C156.382 77.3298 155.883 78.3563 154.941 78.6812L154.972 78.7709L155.003 78.8606C156.044 78.5015 156.595 77.3669 156.237 76.3265L156.147 76.3575ZM154.972 78.7709L154.941 78.6812L123.268 89.6081L123.299 89.6979L123.33 89.7876L155.003 78.8606L154.972 78.7709ZM123.299 89.6979L123.268 89.6081C122.327 89.9329 121.3 89.4328 120.975 88.4914L120.886 88.5224L120.796 88.5533C121.155 89.5938 122.29 90.1466 123.33 89.7876L123.299 89.6979ZM120.886 88.5224L120.975 88.4914L113.082 65.6116L112.992 65.6425L112.902 65.6735L120.796 88.5533L120.886 88.5224ZM112.992 65.6425L113.082 65.6116C112.757 64.6701 113.257 63.6433 114.199 63.3185L114.168 63.2288L114.137 63.139C113.096 63.498 112.543 64.6329 112.902 65.6735L112.992 65.6425ZM114.168 63.2288L114.199 63.3185L118.595 61.8019L118.564 61.7121L118.533 61.6224L114.137 63.139L114.168 63.2288ZM120.978 62.8876L120.888 62.9186C121.11 63.5626 121.812 63.9046 122.456 63.6824L122.425 63.5927L122.394 63.503C121.849 63.691 121.255 63.4016 121.067 62.8567L120.978 62.8876Z" fill="black" mask="url(#path-10-inside-1_2961_1379)"/>
</g>
<g filter="url(#filter1_dddd_2961_1379)">
<mask id="path-12-inside-2_2961_1379" fill="white">
<path d="M663.111 148.029C664.102 147.687 665.183 148.214 665.524 149.205C665.73 149.799 666.378 150.115 666.972 149.91L691.378 141.49C692.369 141.148 693.449 141.675 693.791 142.666L700.694 162.674C701.036 163.665 700.51 164.746 699.519 165.088L667.846 176.015C666.855 176.357 665.774 175.83 665.432 174.839L657.539 151.96C657.197 150.968 657.723 149.888 658.715 149.546L663.111 148.029Z"/>
</mask>
<path d="M663.111 148.029C664.102 147.687 665.183 148.214 665.524 149.205C665.73 149.799 666.378 150.115 666.972 149.91L691.378 141.49C692.369 141.148 693.449 141.675 693.791 142.666L700.694 162.674C701.036 163.665 700.51 164.746 699.519 165.088L667.846 176.015C666.855 176.357 665.774 175.83 665.432 174.839L657.539 151.96C657.197 150.968 657.723 149.888 658.715 149.546L663.111 148.029Z" fill="white"/>
<path d="M691.378 141.49L691.347 141.4L691.347 141.4L691.378 141.49ZM693.791 142.666L693.881 142.635L693.881 142.635L693.791 142.666ZM700.694 162.674L700.784 162.644L700.784 162.644L700.694 162.674ZM699.519 165.088L699.55 165.178L699.55 165.178L699.519 165.088ZM665.432 174.839L665.343 174.87L665.343 174.87L665.432 174.839ZM663.111 148.029L663.142 148.119C664.083 147.794 665.11 148.294 665.435 149.236L665.524 149.205L665.614 149.174C665.255 148.133 664.12 147.58 663.08 147.939L663.111 148.029ZM666.972 149.91L667.003 149.999L691.409 141.58L691.378 141.49L691.347 141.4L666.941 149.82L666.972 149.91ZM691.378 141.49L691.409 141.58C692.35 141.255 693.376 141.755 693.701 142.697L693.791 142.666L693.881 142.635C693.522 141.594 692.388 141.041 691.347 141.4L691.378 141.49ZM693.791 142.666L693.701 142.697L700.604 162.705L700.694 162.674L700.784 162.644L693.881 142.635L693.791 142.666ZM700.694 162.674L700.604 162.705C700.929 163.647 700.429 164.673 699.488 164.998L699.519 165.088L699.55 165.178C700.591 164.819 701.142 163.684 700.784 162.644L700.694 162.674ZM699.519 165.088L699.488 164.998L667.815 175.925L667.846 176.015L667.877 176.105L699.55 165.178L699.519 165.088ZM667.846 176.015L667.815 175.925C666.874 176.25 665.847 175.75 665.522 174.808L665.432 174.839L665.343 174.87C665.702 175.911 666.837 176.464 667.877 176.105L667.846 176.015ZM665.432 174.839L665.522 174.808L657.629 151.929L657.539 151.96L657.449 151.991L665.343 174.87L665.432 174.839ZM657.539 151.96L657.629 151.929C657.304 150.987 657.804 149.96 658.746 149.636L658.715 149.546L658.684 149.456C657.643 149.815 657.09 150.95 657.449 151.991L657.539 151.96ZM658.715 149.546L658.746 149.636L663.142 148.119L663.111 148.029L663.08 147.939L658.684 149.456L658.715 149.546ZM665.524 149.205L665.435 149.236C665.657 149.88 666.359 150.222 667.003 149.999L666.972 149.91L666.941 149.82C666.396 150.008 665.802 149.719 665.614 149.174L665.524 149.205Z" fill="black" mask="url(#path-12-inside-2_2961_1379)"/>
</g>
<g filter="url(#filter2_dddd_2961_1379)">
<mask id="path-14-inside-3_2961_1379" fill="white">
<path d="M495.233 81.3828C496.258 81.6042 496.909 82.6146 496.688 83.6393C496.555 84.254 496.946 84.86 497.561 84.9928L522.796 90.4444C523.82 90.6659 524.471 91.676 524.25 92.7006L519.78 113.389C519.559 114.414 518.549 115.066 517.525 114.844L484.775 107.77C483.751 107.548 483.099 106.538 483.32 105.513L488.431 81.8556C488.653 80.8309 489.663 80.1795 490.688 80.4009L495.233 81.3828Z"/>
</mask>
<path d="M495.233 81.3828C496.258 81.6042 496.909 82.6146 496.688 83.6393C496.555 84.254 496.946 84.86 497.561 84.9928L522.796 90.4444C523.82 90.6659 524.471 91.676 524.25 92.7006L519.78 113.389C519.559 114.414 518.549 115.066 517.525 114.844L484.775 107.77C483.751 107.548 483.099 106.538 483.32 105.513L488.431 81.8556C488.653 80.8309 489.663 80.1795 490.688 80.4009L495.233 81.3828Z" fill="white"/>
<path d="M522.796 90.4444L522.816 90.3516L522.816 90.3516L522.796 90.4444ZM524.25 92.7006L524.342 92.7207L524.342 92.7207L524.25 92.7006ZM519.78 113.389L519.873 113.409L519.873 113.409L519.78 113.389ZM517.525 114.844L517.505 114.937L517.505 114.937L517.525 114.844ZM483.32 105.513L483.228 105.493L483.228 105.493L483.32 105.513ZM495.233 81.3828L495.213 81.4756C496.187 81.6859 496.805 82.6458 496.595 83.6193L496.688 83.6393L496.781 83.6594C497.013 82.5834 496.329 81.5225 495.253 81.2901L495.233 81.3828ZM497.561 84.9928L497.54 85.0856L522.776 90.5371L522.796 90.4444L522.816 90.3516L497.581 84.9L497.561 84.9928ZM522.796 90.4444L522.776 90.5371C523.749 90.7476 524.367 91.7072 524.157 92.6806L524.25 92.7006L524.342 92.7207C524.575 91.6449 523.892 90.5842 522.816 90.3516L522.796 90.4444ZM524.25 92.7006L524.157 92.6806L519.687 113.369L519.78 113.389L519.873 113.409L524.342 92.7207L524.25 92.7006ZM519.78 113.389L519.687 113.369C519.477 114.343 518.518 114.962 517.545 114.752L517.525 114.844L517.505 114.937C518.58 115.169 519.64 114.485 519.873 113.409L519.78 113.389ZM517.525 114.844L517.545 114.752L484.795 107.677L484.775 107.77L484.755 107.862L517.505 114.937L517.525 114.844ZM484.775 107.77L484.795 107.677C483.822 107.466 483.203 106.507 483.413 105.533L483.32 105.513L483.228 105.493C482.995 106.569 483.679 107.63 484.755 107.862L484.775 107.77ZM483.32 105.513L483.413 105.533L488.524 81.8757L488.431 81.8556L488.338 81.8356L483.228 105.493L483.32 105.513ZM488.431 81.8556L488.524 81.8757C488.734 80.9022 489.694 80.2833 490.668 80.4936L490.688 80.4009L490.708 80.3081C489.632 80.0757 488.571 80.7596 488.338 81.8356L488.431 81.8556ZM490.688 80.4009L490.668 80.4936L495.213 81.4756L495.233 81.3828L495.253 81.2901L490.708 80.3081L490.688 80.4009ZM496.688 83.6393L496.595 83.6193C496.451 84.2852 496.875 84.9417 497.54 85.0856L497.561 84.9928L497.581 84.9C497.017 84.7783 496.659 84.2228 496.781 83.6594L496.688 83.6393Z" fill="black" mask="url(#path-14-inside-3_2961_1379)"/>
</g>
<g filter="url(#filter3_dddd_2961_1379)">
<mask id="path-16-inside-4_2961_1379" fill="white">
<path d="M264.233 163.383C265.258 163.604 265.909 164.615 265.688 165.639C265.555 166.254 265.946 166.86 266.561 166.993L291.796 172.444C292.82 172.666 293.471 173.676 293.25 174.701L288.78 195.389C288.559 196.414 287.549 197.066 286.525 196.844L253.775 189.77C252.751 189.548 252.099 188.538 252.32 187.513L257.431 163.856C257.653 162.831 258.663 162.179 259.688 162.401L264.233 163.383Z"/>
</mask>
<path d="M264.233 163.383C265.258 163.604 265.909 164.615 265.688 165.639C265.555 166.254 265.946 166.86 266.561 166.993L291.796 172.444C292.82 172.666 293.471 173.676 293.25 174.701L288.78 195.389C288.559 196.414 287.549 197.066 286.525 196.844L253.775 189.77C252.751 189.548 252.099 188.538 252.32 187.513L257.431 163.856C257.653 162.831 258.663 162.179 259.688 162.401L264.233 163.383Z" fill="white"/>
<path d="M264.233 163.383L264.213 163.476L264.233 163.383ZM291.796 172.444L291.816 172.352L291.816 172.352L291.796 172.444ZM293.25 174.701L293.342 174.721L293.342 174.721L293.25 174.701ZM288.78 195.389L288.873 195.409L288.873 195.409L288.78 195.389ZM286.525 196.844L286.505 196.937L286.505 196.937L286.525 196.844ZM253.775 189.77L253.795 189.677L253.775 189.77ZM252.32 187.513L252.228 187.493L252.228 187.493L252.32 187.513ZM259.688 162.401L259.708 162.308L259.688 162.401ZM264.233 163.383L264.213 163.476C265.187 163.686 265.805 164.646 265.595 165.619L265.688 165.639L265.781 165.659C266.013 164.583 265.329 163.523 264.253 163.29L264.233 163.383ZM266.561 166.993L266.54 167.086L291.776 172.537L291.796 172.444L291.816 172.352L266.581 166.9L266.561 166.993ZM291.796 172.444L291.776 172.537C292.749 172.748 293.367 173.707 293.157 174.681L293.25 174.701L293.342 174.721C293.575 173.645 292.892 172.584 291.816 172.352L291.796 172.444ZM293.25 174.701L293.157 174.681L288.687 195.369L288.78 195.389L288.873 195.409L293.342 174.721L293.25 174.701ZM288.78 195.389L288.687 195.369C288.477 196.343 287.518 196.962 286.545 196.752L286.525 196.844L286.505 196.937C287.58 197.169 288.64 196.485 288.873 195.409L288.78 195.389ZM286.525 196.844L286.545 196.752L253.795 189.677L253.775 189.77L253.755 189.862L286.505 196.937L286.525 196.844ZM253.775 189.77L253.795 189.677C252.822 189.466 252.203 188.507 252.413 187.533L252.32 187.513L252.228 187.493C251.995 188.569 252.679 189.63 253.755 189.862L253.775 189.77ZM252.32 187.513L252.413 187.533L257.524 163.876L257.431 163.856L257.338 163.836L252.228 187.493L252.32 187.513ZM257.431 163.856L257.524 163.876C257.734 162.902 258.694 162.283 259.668 162.494L259.688 162.401L259.708 162.308C258.632 162.076 257.571 162.76 257.338 163.836L257.431 163.856ZM259.688 162.401L259.668 162.494L264.213 163.476L264.233 163.383L264.253 163.29L259.708 162.308L259.688 162.401ZM265.688 165.639L265.595 165.619C265.451 166.285 265.875 166.942 266.54 167.086L266.561 166.993L266.581 166.9C266.017 166.778 265.659 166.223 265.781 165.659L265.688 165.639Z" fill="black" mask="url(#path-16-inside-4_2961_1379)"/>
</g>
<g filter="url(#filter4_dddd_2961_1379)">
<mask id="path-18-inside-5_2961_1379" fill="white">
<path d="M14.2332 149.383C15.2579 149.604 15.9093 150.615 15.688 151.639C15.5552 152.254 15.9458 152.86 16.5605 152.993L41.7958 158.444C42.8203 158.666 43.4709 159.676 43.2496 160.701L38.7802 181.389C38.5587 182.414 37.5492 183.066 36.5246 182.844L3.77521 175.77C2.75051 175.548 2.09917 174.538 2.32046 173.513L7.43116 149.856C7.65254 148.831 8.66291 148.179 9.68766 148.401L14.2332 149.383Z"/>
</mask>
<path d="M14.2332 149.383C15.2579 149.604 15.9093 150.615 15.688 151.639C15.5552 152.254 15.9458 152.86 16.5605 152.993L41.7958 158.444C42.8203 158.666 43.4709 159.676 43.2496 160.701L38.7802 181.389C38.5587 182.414 37.5492 183.066 36.5246 182.844L3.77521 175.77C2.75051 175.548 2.09917 174.538 2.32046 173.513L7.43116 149.856C7.65254 148.831 8.66291 148.179 9.68766 148.401L14.2332 149.383Z" fill="white"/>
<path d="M14.2332 149.383L14.2132 149.476L14.2332 149.383ZM41.7958 158.444L41.8158 158.352L41.8158 158.352L41.7958 158.444ZM43.2496 160.701L43.3423 160.721L43.3423 160.721L43.2496 160.701ZM38.7802 181.389L38.8729 181.409L38.8729 181.409L38.7802 181.389ZM36.5246 182.844L36.5046 182.937L36.5046 182.937L36.5246 182.844ZM3.77521 175.77L3.75517 175.862L3.77521 175.77ZM2.32046 173.513L2.22768 173.493L2.22768 173.493L2.32046 173.513ZM9.68766 148.401L9.7077 148.308L9.68766 148.401ZM14.2332 149.383L14.2132 149.476C15.1867 149.686 15.8055 150.646 15.5952 151.619L15.688 151.639L15.7807 151.659C16.0132 150.583 15.3292 149.523 14.2532 149.29L14.2332 149.383ZM16.5605 152.993L16.5405 153.086L41.7757 158.537L41.7958 158.444L41.8158 158.352L16.5806 152.9L16.5605 152.993ZM41.7958 158.444L41.7757 158.537C42.749 158.748 43.3671 159.707 43.1568 160.681L43.2496 160.701L43.3423 160.721C43.5747 159.645 42.8916 158.584 41.8158 158.352L41.7958 158.444ZM43.2496 160.701L43.1568 160.681L38.6874 181.369L38.7802 181.389L38.8729 181.409L43.3423 160.721L43.2496 160.701ZM38.7802 181.389L38.6874 181.369C38.477 182.343 37.518 182.962 36.5446 182.752L36.5246 182.844L36.5046 182.937C37.5805 183.169 38.6405 182.485 38.8729 181.409L38.7802 181.389ZM36.5246 182.844L36.5447 182.752L3.79526 175.677L3.77521 175.77L3.75517 175.862L36.5046 182.937L36.5246 182.844ZM3.77521 175.77L3.79526 175.677C2.8218 175.466 2.20301 174.507 2.41323 173.533L2.32046 173.513L2.22768 173.493C1.99534 174.569 2.67922 175.63 3.75517 175.862L3.77521 175.77ZM2.32046 173.513L2.41323 173.533L7.52393 149.876L7.43116 149.856L7.33839 149.836L2.22768 173.493L2.32046 173.513ZM7.43116 149.856L7.52393 149.876C7.73424 148.902 8.6941 148.283 9.66762 148.494L9.68766 148.401L9.7077 148.308C8.63171 148.076 7.57083 148.76 7.33839 149.836L7.43116 149.856ZM9.68766 148.401L9.66762 148.494L14.2132 149.476L14.2332 149.383L14.2532 149.29L9.7077 148.308L9.68766 148.401ZM15.688 151.639L15.5952 151.619C15.4513 152.285 15.8745 152.942 16.5405 153.086L16.5605 152.993L16.5806 152.9C16.0171 152.778 15.659 152.223 15.7807 151.659L15.688 151.639Z" fill="black" mask="url(#path-18-inside-5_2961_1379)"/>
</g>
<path d="M115.337 65.4103C115.269 65.4337 115.201 65.4424 115.131 65.4362C115.062 65.4296 114.997 65.4102 114.935 65.378C114.873 65.3457 114.819 65.3026 114.771 65.2488C114.724 65.1944 114.688 65.1313 114.663 65.0595C114.638 64.9873 114.628 64.9154 114.632 64.844C114.636 64.7719 114.652 64.7044 114.681 64.6415C114.71 64.578 114.749 64.5225 114.8 64.4751C114.85 64.4272 114.909 64.3915 114.977 64.368C115.059 64.34 115.14 64.333 115.222 64.3472C115.303 64.361 115.377 64.3914 115.444 64.4386L115.316 64.5765C115.276 64.5513 115.231 64.5355 115.182 64.5289C115.133 64.5223 115.085 64.527 115.038 64.5432C114.994 64.5584 114.956 64.5817 114.923 64.6133C114.89 64.6444 114.865 64.681 114.847 64.7231C114.829 64.7648 114.819 64.8095 114.817 64.8572C114.815 64.9044 114.822 64.9517 114.838 64.9991C114.855 65.047 114.879 65.0889 114.909 65.1249C114.94 65.1608 114.976 65.1897 115.016 65.2117C115.056 65.2332 115.099 65.2464 115.143 65.2514C115.188 65.2558 115.233 65.2503 115.277 65.2351C115.324 65.2186 115.365 65.1927 115.399 65.1575C115.433 65.1216 115.459 65.0813 115.475 65.0366L115.66 65.0674C115.637 65.1451 115.597 65.2147 115.542 65.2761C115.487 65.3375 115.418 65.3822 115.337 65.4103ZM116.181 65.0983L115.469 64.2192L115.655 64.1551L116.222 64.8551L116.237 63.9543L116.423 63.8904L116.405 65.0211L116.181 65.0983Z" fill="black"/>
<path d="M659.884 151.727C659.816 151.751 659.747 151.759 659.678 151.753C659.609 151.747 659.543 151.727 659.482 151.695C659.42 151.663 659.366 151.62 659.318 151.566C659.271 151.511 659.235 151.448 659.21 151.377C659.185 151.304 659.175 151.232 659.178 151.161C659.182 151.089 659.199 151.021 659.227 150.959C659.256 150.895 659.296 150.84 659.347 150.792C659.397 150.744 659.456 150.708 659.524 150.685C659.606 150.657 659.687 150.65 659.769 150.664C659.85 150.678 659.924 150.708 659.99 150.756L659.863 150.894C659.823 150.868 659.778 150.852 659.728 150.846C659.679 150.839 659.632 150.844 659.585 150.86C659.541 150.875 659.502 150.899 659.47 150.93C659.437 150.961 659.412 150.998 659.394 151.04C659.375 151.082 659.365 151.126 659.364 151.174C659.362 151.221 659.369 151.269 659.385 151.316C659.402 151.364 659.425 151.406 659.456 151.442C659.487 151.478 659.523 151.507 659.563 151.529C659.603 151.55 659.646 151.563 659.69 151.568C659.735 151.573 659.779 151.567 659.823 151.552C659.871 151.536 659.912 151.51 659.946 151.475C659.98 151.439 660.005 151.398 660.022 151.354L660.207 151.384C660.184 151.462 660.144 151.532 660.089 151.593C660.034 151.654 659.965 151.699 659.884 151.727ZM660.727 151.415L660.016 150.536L660.202 150.472L660.769 151.172L660.784 150.271L660.969 150.207L660.951 151.338L660.727 151.415Z" fill="black"/>
<path d="M490.558 82.8725C490.488 82.8573 490.424 82.8291 490.369 82.7881C490.313 82.7465 490.267 82.6959 490.231 82.6363C490.195 82.5768 490.17 82.5117 490.158 82.4411C490.146 82.3701 490.148 82.2975 490.164 82.2233C490.18 82.1486 490.208 82.0817 490.248 82.0225C490.289 81.963 490.338 81.9137 490.395 81.8748C490.453 81.8355 490.515 81.8086 490.583 81.7943C490.651 81.7794 490.72 81.7796 490.791 81.7948C490.875 81.813 490.948 81.8492 491.01 81.9036C491.073 81.9575 491.12 82.0219 491.153 82.0967L490.972 82.1486C490.951 82.1062 490.921 82.0694 490.882 82.0382C490.843 82.0071 490.8 81.9864 490.751 81.9759C490.706 81.966 490.661 81.9662 490.617 81.9763C490.573 81.986 490.532 82.0041 490.495 82.0308C490.458 82.0569 490.426 82.0899 490.4 82.1298C490.374 82.1692 490.355 82.2134 490.345 82.2624C490.334 82.3119 490.332 82.36 490.34 82.4067C490.348 82.4535 490.363 82.4967 490.386 82.5364C490.41 82.5755 490.439 82.6088 490.474 82.6362C490.511 82.6631 490.551 82.6815 490.597 82.6914C490.646 82.702 490.695 82.7011 490.742 82.6885C490.79 82.6756 490.832 82.6542 490.869 82.6244L491.012 82.7469C490.952 82.8012 490.882 82.8402 490.803 82.864C490.724 82.8878 490.642 82.8906 490.558 82.8725ZM491.441 83.043L491.288 81.9225L491.481 81.964L491.602 82.8565L492.083 82.0941L492.274 82.1354L491.672 83.0931L491.441 83.043Z" fill="black"/>
<path d="M259.558 164.872C259.488 164.857 259.424 164.829 259.369 164.788C259.313 164.747 259.267 164.696 259.231 164.636C259.195 164.577 259.17 164.512 259.158 164.441C259.146 164.37 259.148 164.298 259.164 164.223C259.18 164.149 259.208 164.082 259.248 164.023C259.289 163.963 259.338 163.914 259.395 163.875C259.453 163.835 259.515 163.809 259.583 163.794C259.651 163.779 259.72 163.78 259.791 163.795C259.875 163.813 259.948 163.849 260.01 163.904C260.073 163.957 260.12 164.022 260.153 164.097L259.972 164.149C259.951 164.106 259.921 164.069 259.882 164.038C259.843 164.007 259.8 163.986 259.751 163.976C259.706 163.966 259.661 163.966 259.617 163.976C259.573 163.986 259.532 164.004 259.495 164.031C259.458 164.057 259.426 164.09 259.4 164.13C259.374 164.169 259.355 164.213 259.345 164.262C259.334 164.312 259.332 164.36 259.34 164.407C259.348 164.453 259.363 164.497 259.386 164.536C259.41 164.576 259.439 164.609 259.474 164.636C259.511 164.663 259.551 164.682 259.597 164.691C259.646 164.702 259.695 164.701 259.742 164.689C259.79 164.676 259.832 164.654 259.869 164.624L260.012 164.747C259.952 164.801 259.882 164.84 259.803 164.864C259.724 164.888 259.642 164.891 259.558 164.872ZM260.441 165.043L260.288 163.923L260.481 163.964L260.602 164.857L261.083 164.094L261.274 164.135L260.672 165.093L260.441 165.043Z" fill="black"/>
<path d="M9.5578 150.872C9.48754 150.857 9.42448 150.829 9.36861 150.788C9.31286 150.747 9.26682 150.696 9.2305 150.636C9.19468 150.577 9.17041 150.512 9.1577 150.441C9.14558 150.37 9.14754 150.298 9.16358 150.223C9.17972 150.149 9.2079 150.082 9.24813 150.023C9.28896 149.963 9.33792 149.914 9.39501 149.875C9.4527 149.835 9.51547 149.809 9.5833 149.794C9.65125 149.779 9.72035 149.78 9.79061 149.795C9.87472 149.813 9.94794 149.849 10.0102 149.904C10.0727 149.957 10.1201 150.022 10.1526 150.097L9.97208 150.149C9.95069 150.106 9.92058 150.069 9.88174 150.038C9.84339 150.007 9.79998 149.986 9.75149 149.976C9.70597 149.966 9.66113 149.966 9.61699 149.976C9.57296 149.986 9.53227 150.004 9.49493 150.031C9.45769 150.057 9.42596 150.09 9.39973 150.13C9.37361 150.169 9.35525 150.213 9.34467 150.262C9.33398 150.312 9.3324 150.36 9.33992 150.407C9.34794 150.453 9.36346 150.497 9.38648 150.536C9.40961 150.576 9.43893 150.609 9.47446 150.636C9.51058 150.663 9.5514 150.682 9.59692 150.691C9.6464 150.702 9.69477 150.701 9.74203 150.689C9.78988 150.676 9.83231 150.654 9.8693 150.624L10.0122 150.747C9.95178 150.801 9.88197 150.84 9.80277 150.864C9.72357 150.888 9.64192 150.891 9.5578 150.872ZM10.4409 151.043L10.2884 149.923L10.4806 149.964L10.6024 150.857L11.0825 150.094L11.274 150.135L10.6725 151.093L10.4409 151.043Z" fill="black"/>
<defs>
<filter id="filter0_dddd_2961_1379" x="110.611" y="47.1909" width="47.9192" height="42.9909" filterUnits="userSpaceOnUse" color-interpolation-filters="sRGB">
<feFlood flood-opacity="0" result="BackgroundImageFix"/>
<feColorMatrix in="SourceAlpha" type="matrix" values="0 0 0 0 0 0 0 0 0 0 0 0 0 0 0 0 0 0 127 0" result="hardAlpha"/>
<feOffset dy="-0.379657"/>
<feGaussianBlur stdDeviation="0.379657"/>
<feColorMatrix type="matrix" values="0 0 0 0 0 0 0 0 0 0 0 0 0 0 0 0 0 0 0.05 0"/>
<feBlend mode="normal" in2="BackgroundImageFix" result="effect1_dropShadow_2961_1379"/>
<feColorMatrix in="SourceAlpha" type="matrix" values="0 0 0 0 0 0 0 0 0 0 0 0 0 0 0 0 0 0 127 0" result="hardAlpha"/>
<feOffset dy="-1.42371"/>
<feGaussianBlur stdDeviation="0.711856"/>
<feColorMatrix type="matrix" values="0 0 0 0 0 0 0 0 0 0 0 0 0 0 0 0 0 0 0.04 0"/>
<feBlend mode="normal" in2="effect1_dropShadow_2961_1379" result="effect2_dropShadow_2961_1379"/>
<feColorMatrix in="SourceAlpha" type="matrix" values="0 0 0 0 0 0 0 0 0 0 0 0 0 0 0 0 0 0 127 0" result="hardAlpha"/>
<feOffset dy="-3.13217"/>
<feGaussianBlur stdDeviation="0.949141"/>
<feColorMatrix type="matrix" values="0 0 0 0 0 0 0 0 0 0 0 0 0 0 0 0 0 0 0.03 0"/>
<feBlend mode="normal" in2="effect2_dropShadow_2961_1379" result="effect3_dropShadow_2961_1379"/>
<feColorMatrix in="SourceAlpha" type="matrix" values="0 0 0 0 0 0 0 0 0 0 0 0 0 0 0 0 0 0 127 0" result="hardAlpha"/>
<feOffset dy="-5.59993"/>
<feGaussianBlur stdDeviation="1.13897"/>
<feColorMatrix type="matrix" values="0 0 0 0 0 0 0 0 0 0 0 0 0 0 0 0 0 0 0.01 0"/>
<feBlend mode="normal" in2="effect3_dropShadow_2961_1379" result="effect4_dropShadow_2961_1379"/>
<feBlend mode="normal" in="SourceGraphic" in2="effect4_dropShadow_2961_1379" result="shape"/>
</filter>
<filter id="filter1_dddd_2961_1379" x="655.158" y="133.508" width="47.9192" height="42.9909" filterUnits="userSpaceOnUse" color-interpolation-filters="sRGB">
<feFlood flood-opacity="0" result="BackgroundImageFix"/>
<feColorMatrix in="SourceAlpha" type="matrix" values="0 0 0 0 0 0 0 0 0 0 0 0 0 0 0 0 0 0 127 0" result="hardAlpha"/>
<feOffset dy="-0.379657"/>
<feGaussianBlur stdDeviation="0.379657"/>
<feColorMatrix type="matrix" values="0 0 0 0 0 0 0 0 0 0 0 0 0 0 0 0 0 0 0.05 0"/>
<feBlend mode="normal" in2="BackgroundImageFix" result="effect1_dropShadow_2961_1379"/>
<feColorMatrix in="SourceAlpha" type="matrix" values="0 0 0 0 0 0 0 0 0 0 0 0 0 0 0 0 0 0 127 0" result="hardAlpha"/>
<feOffset dy="-1.42371"/>
<feGaussianBlur stdDeviation="0.711856"/>
<feColorMatrix type="matrix" values="0 0 0 0 0 0 0 0 0 0 0 0 0 0 0 0 0 0 0.04 0"/>
<feBlend mode="normal" in2="effect1_dropShadow_2961_1379" result="effect2_dropShadow_2961_1379"/>
<feColorMatrix in="SourceAlpha" type="matrix" values="0 0 0 0 0 0 0 0 0 0 0 0 0 0 0 0 0 0 127 0" result="hardAlpha"/>
<feOffset dy="-3.13217"/>
<feGaussianBlur stdDeviation="0.949141"/>
<feColorMatrix type="matrix" values="0 0 0 0 0 0 0 0 0 0 0 0 0 0 0 0 0 0 0.03 0"/>
<feBlend mode="normal" in2="effect2_dropShadow_2961_1379" result="effect3_dropShadow_2961_1379"/>
<feColorMatrix in="SourceAlpha" type="matrix" values="0 0 0 0 0 0 0 0 0 0 0 0 0 0 0 0 0 0 127 0" result="hardAlpha"/>
<feOffset dy="-5.59993"/>
<feGaussianBlur stdDeviation="1.13897"/>
<feColorMatrix type="matrix" values="0 0 0 0 0 0 0 0 0 0 0 0 0 0 0 0 0 0 0.01 0"/>
<feBlend mode="normal" in2="effect3_dropShadow_2961_1379" result="effect4_dropShadow_2961_1379"/>
<feBlend mode="normal" in="SourceGraphic" in2="effect4_dropShadow_2961_1379" result="shape"/>
</filter>
<filter id="filter2_dddd_2961_1379" x="480.999" y="72.4798" width="45.5715" height="42.7873" filterUnits="userSpaceOnUse" color-interpolation-filters="sRGB">
<feFlood flood-opacity="0" result="BackgroundImageFix"/>
<feColorMatrix in="SourceAlpha" type="matrix" values="0 0 0 0 0 0 0 0 0 0 0 0 0 0 0 0 0 0 127 0" result="hardAlpha"/>
<feOffset dy="-0.379657"/>
<feGaussianBlur stdDeviation="0.379657"/>
<feColorMatrix type="matrix" values="0 0 0 0 0 0 0 0 0 0 0 0 0 0 0 0 0 0 0.05 0"/>
<feBlend mode="normal" in2="BackgroundImageFix" result="effect1_dropShadow_2961_1379"/>
<feColorMatrix in="SourceAlpha" type="matrix" values="0 0 0 0 0 0 0 0 0 0 0 0 0 0 0 0 0 0 127 0" result="hardAlpha"/>
<feOffset dy="-1.42371"/>
<feGaussianBlur stdDeviation="0.711856"/>
<feColorMatrix type="matrix" values="0 0 0 0 0 0 0 0 0 0 0 0 0 0 0 0 0 0 0.04 0"/>
<feBlend mode="normal" in2="effect1_dropShadow_2961_1379" result="effect2_dropShadow_2961_1379"/>
<feColorMatrix in="SourceAlpha" type="matrix" values="0 0 0 0 0 0 0 0 0 0 0 0 0 0 0 0 0 0 127 0" result="hardAlpha"/>
<feOffset dy="-3.13217"/>
<feGaussianBlur stdDeviation="0.949141"/>
<feColorMatrix type="matrix" values="0 0 0 0 0 0 0 0 0 0 0 0 0 0 0 0 0 0 0.03 0"/>
<feBlend mode="normal" in2="effect2_dropShadow_2961_1379" result="effect3_dropShadow_2961_1379"/>
<feColorMatrix in="SourceAlpha" type="matrix" values="0 0 0 0 0 0 0 0 0 0 0 0 0 0 0 0 0 0 127 0" result="hardAlpha"/>
<feOffset dy="-5.59993"/>
<feGaussianBlur stdDeviation="1.13897"/>
<feColorMatrix type="matrix" values="0 0 0 0 0 0 0 0 0 0 0 0 0 0 0 0 0 0 0.01 0"/>
<feBlend mode="normal" in2="effect3_dropShadow_2961_1379" result="effect4_dropShadow_2961_1379"/>
<feBlend mode="normal" in="SourceGraphic" in2="effect4_dropShadow_2961_1379" result="shape"/>
</filter>
<filter id="filter3_dddd_2961_1379" x="249.999" y="154.48" width="45.5715" height="42.7873" filterUnits="userSpaceOnUse" color-interpolation-filters="sRGB">
<feFlood flood-opacity="0" result="BackgroundImageFix"/>
<feColorMatrix in="SourceAlpha" type="matrix" values="0 0 0 0 0 0 0 0 0 0 0 0 0 0 0 0 0 0 127 0" result="hardAlpha"/>
<feOffset dy="-0.379657"/>
<feGaussianBlur stdDeviation="0.379657"/>
<feColorMatrix type="matrix" values="0 0 0 0 0 0 0 0 0 0 0 0 0 0 0 0 0 0 0.05 0"/>
<feBlend mode="normal" in2="BackgroundImageFix" result="effect1_dropShadow_2961_1379"/>
<feColorMatrix in="SourceAlpha" type="matrix" values="0 0 0 0 0 0 0 0 0 0 0 0 0 0 0 0 0 0 127 0" result="hardAlpha"/>
<feOffset dy="-1.42371"/>
<feGaussianBlur stdDeviation="0.711856"/>
<feColorMatrix type="matrix" values="0 0 0 0 0 0 0 0 0 0 0 0 0 0 0 0 0 0 0.04 0"/>
<feBlend mode="normal" in2="effect1_dropShadow_2961_1379" result="effect2_dropShadow_2961_1379"/>
<feColorMatrix in="SourceAlpha" type="matrix" values="0 0 0 0 0 0 0 0 0 0 0 0 0 0 0 0 0 0 127 0" result="hardAlpha"/>
<feOffset dy="-3.13217"/>
<feGaussianBlur stdDeviation="0.949141"/>
<feColorMatrix type="matrix" values="0 0 0 0 0 0 0 0 0 0 0 0 0 0 0 0 0 0 0.03 0"/>
<feBlend mode="normal" in2="effect2_dropShadow_2961_1379" result="effect3_dropShadow_2961_1379"/>
<feColorMatrix in="SourceAlpha" type="matrix" values="0 0 0 0 0 0 0 0 0 0 0 0 0 0 0 0 0 0 127 0" result="hardAlpha"/>
<feOffset dy="-5.59993"/>
<feGaussianBlur stdDeviation="1.13897"/>
<feColorMatrix type="matrix" values="0 0 0 0 0 0 0 0 0 0 0 0 0 0 0 0 0 0 0.01 0"/>
<feBlend mode="normal" in2="effect3_dropShadow_2961_1379" result="effect4_dropShadow_2961_1379"/>
<feBlend mode="normal" in="SourceGraphic" in2="effect4_dropShadow_2961_1379" result="shape"/>
</filter>
<filter id="filter4_dddd_2961_1379" x="-0.000595808" y="140.48" width="45.5715" height="42.7873" filterUnits="userSpaceOnUse" color-interpolation-filters="sRGB">
<feFlood flood-opacity="0" result="BackgroundImageFix"/>
<feColorMatrix in="SourceAlpha" type="matrix" values="0 0 0 0 0 0 0 0 0 0 0 0 0 0 0 0 0 0 127 0" result="hardAlpha"/>
<feOffset dy="-0.379657"/>
<feGaussianBlur stdDeviation="0.379657"/>
<feColorMatrix type="matrix" values="0 0 0 0 0 0 0 0 0 0 0 0 0 0 0 0 0 0 0.05 0"/>
<feBlend mode="normal" in2="BackgroundImageFix" result="effect1_dropShadow_2961_1379"/>
<feColorMatrix in="SourceAlpha" type="matrix" values="0 0 0 0 0 0 0 0 0 0 0 0 0 0 0 0 0 0 127 0" result="hardAlpha"/>
<feOffset dy="-1.42371"/>
<feGaussianBlur stdDeviation="0.711856"/>
<feColorMatrix type="matrix" values="0 0 0 0 0 0 0 0 0 0 0 0 0 0 0 0 0 0 0.04 0"/>
<feBlend mode="normal" in2="effect1_dropShadow_2961_1379" result="effect2_dropShadow_2961_1379"/>
<feColorMatrix in="SourceAlpha" type="matrix" values="0 0 0 0 0 0 0 0 0 0 0 0 0 0 0 0 0 0 127 0" result="hardAlpha"/>
<feOffset dy="-3.13217"/>
<feGaussianBlur stdDeviation="0.949141"/>
<feColorMatrix type="matrix" values="0 0 0 0 0 0 0 0 0 0 0 0 0 0 0 0 0 0 0.03 0"/>
<feBlend mode="normal" in2="effect2_dropShadow_2961_1379" result="effect3_dropShadow_2961_1379"/>
<feColorMatrix in="SourceAlpha" type="matrix" values="0 0 0 0 0 0 0 0 0 0 0 0 0 0 0 0 0 0 127 0" result="hardAlpha"/>
<feOffset dy="-5.59993"/>
<feGaussianBlur stdDeviation="1.13897"/>
<feColorMatrix type="matrix" values="0 0 0 0 0 0 0 0 0 0 0 0 0 0 0 0 0 0 0.01 0"/>
<feBlend mode="normal" in2="effect3_dropShadow_2961_1379" result="effect4_dropShadow_2961_1379"/>
<feBlend mode="normal" in="SourceGraphic" in2="effect4_dropShadow_2961_1379" result="shape"/>
</filter>
<linearGradient id="paint0_linear_2961_1379" x1="378.749" y1="0" x2="378.749" y2="181.138" gradientUnits="userSpaceOnUse">
<stop offset="0.705891" stop-color="white" stop-opacity="0"/>
<stop offset="1" stop-color="white"/>
</linearGradient>
<linearGradient id="paint1_linear_2961_1379" x1="360.947" y1="38.5769" x2="360.947" y2="168.813" gradientUnits="userSpaceOnUse">
<stop offset="0.705891" stop-color="white" stop-opacity="0"/>
<stop offset="1" stop-color="white"/>
</linearGradient>
</defs>
</svg>
