<svg width="35" height="35" viewBox="0 0 35 35" fill="none" xmlns="http://www.w3.org/2000/svg">
<path d="M9.59789 17.8541C10.1966 16.0115 12.8034 16.0115 13.4021 17.8541L13.6329 18.5643C13.9006 19.3884 14.6685 19.9463 15.535 19.9463H16.2818C18.2192 19.9463 19.0248 22.4255 17.4574 23.5643L16.8532 24.0033C16.1522 24.5126 15.8589 25.4153 16.1266 26.2394L16.3574 26.9496C16.9561 28.7922 14.8472 30.3245 13.2797 29.1857L12.6756 28.7467C11.9746 28.2374 11.0254 28.2374 10.3244 28.7467L9.72027 29.1857C8.15284 30.3245 6.04388 28.7922 6.64258 26.9496L6.87335 26.2394C7.1411 25.4153 6.84778 24.5126 6.14681 24.0033L5.54265 23.5643C3.97522 22.4255 4.78077 19.9463 6.71822 19.9463H7.465C8.33146 19.9463 9.09937 19.3884 9.36712 18.5643L9.59789 17.8541Z" fill="#006A54"/>
<path d="M10.0489 2.92705C10.3483 2.00574 11.6517 2.00574 11.9511 2.92705L12.3471 4.1459C12.481 4.55792 12.8649 4.83688 13.2981 4.83688H14.5797C15.5484 4.83688 15.9512 6.0765 15.1675 6.6459L14.1307 7.39919C13.7802 7.65383 13.6335 8.1052 13.7674 8.51722L14.1634 9.73607C14.4628 10.6574 13.4083 11.4235 12.6246 10.8541L11.5878 10.1008C11.2373 9.84617 10.7627 9.84617 10.4122 10.1008L9.3754 10.8541C8.59169 11.4235 7.53721 10.6574 7.83656 9.73607L8.23259 8.51722C8.36646 8.1052 8.2198 7.65383 7.86932 7.39919L6.8325 6.6459C6.04879 6.0765 6.45156 4.83688 7.42029 4.83688H8.70186C9.13509 4.83688 9.51904 4.55792 9.65292 4.1459L10.0489 2.92705Z" fill="#006A54" fill-opacity="0.47"/>
<path d="M27.0489 17.927C27.3483 17.0057 28.6517 17.0057 28.9511 17.927L29.3471 19.1459C29.481 19.5579 29.8649 19.8369 30.2981 19.8369H31.5797C32.5484 19.8369 32.9512 21.0765 32.1675 21.6459L31.1307 22.3992C30.7802 22.6538 30.6335 23.1052 30.7674 23.5172L31.1634 24.7361C31.4628 25.6574 30.4083 26.4235 29.6246 25.8541L28.5878 25.1008C28.2373 24.8462 27.7627 24.8462 27.4122 25.1008L26.3754 25.8541C25.5917 26.4235 24.5372 25.6574 24.8366 24.7361L25.2326 23.5172C25.3665 23.1052 25.2198 22.6538 24.8693 22.3992L23.8325 21.6459C23.0488 21.0765 23.4516 19.8369 24.4203 19.8369H25.7019C26.1351 19.8369 26.519 19.5579 26.6529 19.1459L27.0489 17.927Z" fill="#006A54" fill-opacity="0.62"/>
</svg>
