<svg width="17" height="16" viewBox="0 0 17 16" fill="none" xmlns="http://www.w3.org/2000/svg">
<mask id="mask0_1972_744" style="mask-type:luminance" maskUnits="userSpaceOnUse" x="0" y="0" width="17" height="16">
<path d="M16.7296 0H0.539154V16H16.7296V0Z" fill="white"/>
</mask>
<g mask="url(#mask0_1972_744)">
<path d="M3.06891 6H4.08081V5H3.06891V6ZM7.11653 5H8.12842V4H7.11653V5ZM9.14032 5H10.1522V4H9.14032V5ZM11.1641 5H12.176V4H11.1641V5ZM7.11653 3H8.12842V2H7.11653V3ZM9.14032 3H10.1522V2H9.14032V3ZM11.1641 3H12.176V2H11.1641V3ZM7.11653 9H8.12842V8H7.11653V9ZM9.14032 9H10.1522V8H9.14032V9ZM11.1641 9H12.176V8H11.1641V9ZM7.11653 11H8.12842V10H7.11653V11ZM11.1641 11H12.176V10H11.1641V11ZM7.11653 13H8.12842V12H7.11653V13ZM11.1641 13H12.176V12H11.1641V13ZM14.1998 12H15.2118V11H14.1998V12ZM14.1998 9V10H15.2118V9H14.1998ZM14.1998 14H15.2118V13H14.1998V14ZM7.11653 7H8.12842V6H7.11653V7ZM9.14032 7H10.1522V6H9.14032V7ZM11.1641 7H12.176V6H11.1641V7ZM3.06891 8H4.08081V7H3.06891V8ZM3.06891 10H4.08081V9H3.06891V10ZM3.06891 12H4.08081V11H3.06891V12ZM3.06891 14H4.08081V13H3.06891V14ZM9.14032 11H10.1522V10H9.14032V11Z" fill="#052D23"/>
<path fill-rule="evenodd" clip-rule="evenodd" d="M16.2237 15C16.2237 15.5527 15.7711 16 15.2118 16H2.05701C1.49768 16 1.0451 15.5527 1.0451 15V4C1.0451 3.44725 1.49768 3 2.05701 3H5.09272V1C5.09272 0.44725 5.5453 0 6.10463 0H13.1879C13.7473 0 14.1999 0.44725 14.1999 1V7H15.2118C15.7711 7 16.2237 7.44725 16.2237 8V15ZM5.09272 4H2.05701V15H5.09272V4ZM13.1879 1H6.10463V15H9.14033V12H10.1522V15H13.1879V1ZM15.2118 8H14.1999V15H15.2118V8Z" fill="#052D23"/>
</g>
</svg>
