<svg width="1404" height="366" viewBox="0 0 1404 366" fill="none" xmlns="http://www.w3.org/2000/svg">
<path opacity="0.5" d="M130.391 -1.22234e-05H182.394L312.786 358.64H267.187L240.545 285.375H72.2404L45.8547 358.64H5.3503e-07L130.391 -1.22234e-05ZM88.1231 242.338H224.663L156.265 55.0769L88.1231 242.338ZM455.373 365.301C426.682 365.301 401.748 358.299 380.571 344.295C359.565 330.291 343.341 311.505 331.898 287.937C320.627 264.198 314.991 237.898 314.991 209.036V-1.22234e-05H358.028V209.036C358.028 229.53 361.785 248.401 369.3 265.65C376.985 282.899 388 296.647 402.346 306.894C416.862 317.141 434.538 322.264 455.373 322.264C476.55 322.264 494.311 317.141 508.657 306.894C523.003 296.476 533.847 282.728 541.191 265.65C548.705 248.401 552.462 229.53 552.462 209.036V-1.22234e-05H595.499V209.036C595.499 230.725 592.254 251.048 585.765 270.005C579.275 288.791 569.882 305.357 557.586 319.702C545.46 334.048 530.773 345.234 513.524 353.261C496.275 361.287 476.892 365.301 455.373 365.301ZM612.731 358.64V-1.22234e-05H738.767C757.895 -1.22234e-05 775.143 4.69647 790.514 14.0894C806.055 23.4824 818.351 36.2056 827.403 52.259C836.625 68.1417 841.236 85.9029 841.236 105.543C841.236 122.792 837.82 138.504 830.989 152.678C824.158 166.853 814.765 178.722 802.81 188.286C791.026 197.679 777.62 204.169 762.591 207.755L849.689 358.64H799.992L714.431 211.342H655.767V358.64H612.731ZM655.767 168.305H734.412C746.025 168.305 756.699 165.487 766.434 159.851C776.168 154.045 783.853 146.274 789.489 136.54C795.296 126.634 798.199 115.533 798.199 103.237C798.199 90.7702 795.296 79.6694 789.489 69.9349C783.853 60.0296 776.168 52.259 766.434 46.6232C756.699 40.8167 746.025 37.9134 734.412 37.9134H655.767V168.305ZM867.942 358.64V-1.22234e-05H1087.99V43.0368H910.979V144.993H1055.97V188.03H910.979V315.604H1087.99V358.64H867.942ZM1087.77 358.64L1219.19 178.295L1089.31 -1.22234e-05H1142.33L1245.57 141.919L1349.06 -1.22234e-05H1402.09L1272.47 178.295L1403.63 358.64H1350.35L1245.57 215.184L1141.31 358.64H1087.77Z" fill="#ECECEC"/>
</svg>
