<svg width="83" height="35" viewBox="0 0 83 35" fill="none" xmlns="http://www.w3.org/2000/svg">
<path d="M9.06365 23.241C4.84394 23.2407 1.23574 20.2053 0.513346 16.0479C-0.209389 11.8908 2.16277 7.81587 6.13507 6.39163C10.107 4.96738 14.528 6.60653 16.6116 10.276L15.3653 10.9994C14.2539 8.14439 11.853 6.16475 9.06365 6.16475C5.21591 6.16475 2.09741 9.92521 2.09741 14.5597C2.09741 19.1999 5.2166 22.9549 9.06365 22.9549C12.0579 22.9549 14.6152 20.6728 15.5973 17.468L16.741 18.6117C15.2377 21.4585 12.2828 23.24 9.06365 23.2407V23.241Z" fill="#EDA001"/>
<path d="M25.916 16.1322V22.8442H24.6598V21.1548C24.0219 22.3022 22.842 23.1299 21.5738 23.1299C18.0405 23.092 16.9937 20.907 17.4797 18.8627C18.3424 15.2476 22.5997 15.9591 23.5706 13.694C24.245 12.1079 22.6155 10.5701 21.3637 10.5701C20.0311 10.5701 19.3351 11.8807 19.3351 13.2728L17.9434 12.032C18.7315 10.9191 20.0164 10.2648 21.3801 10.283C24.191 10.283 25.7069 12.4628 24.7036 14.5239C23.5274 16.9409 19.8477 16.715 18.893 19.2613C18.262 20.934 19.4162 22.784 21.5741 22.8445C23.0046 22.8445 24.1133 21.8758 24.6605 20.5987V16.1322H25.916Z" fill="#EDA001"/>
<path d="M31.0145 23.1306C29.439 23.1306 27.869 22.6344 26.7952 21.2799L28.0042 20.0822C28.3868 21.3716 29.5037 22.8445 31.0091 22.8445C33.2375 22.8445 34.4403 20.9617 33.7987 19.262C32.8433 16.7156 29.1639 16.9422 27.9877 14.5248C26.9841 12.4641 28.5004 10.2843 31.3112 10.2843C32.6746 10.2661 33.9599 10.9197 34.748 12.0322L33.3559 13.2734C33.3559 11.8817 32.6602 10.5707 31.3328 10.5707C30.0759 10.5707 28.4463 12.1082 29.1208 13.6947C30.0913 15.9604 34.3483 15.2483 35.2113 18.8633C35.7024 20.9285 34.634 23.1299 31.0145 23.1306Z" fill="#EDA001"/>
<path d="M48.1435 19.946C46.7213 22.3814 43.8766 23.6038 41.1311 22.9594C38.3852 22.3147 36.3816 19.9542 36.1917 17.1402C36.0018 14.3266 37.67 11.718 40.3039 10.7106C42.9382 9.7028 45.9212 10.532 47.6579 12.7539L46.8585 13.5533C45.99 11.7677 44.4046 10.5696 42.5964 10.5696C39.8502 10.5696 37.6218 13.3158 37.6218 16.7094C37.6218 20.0979 39.8502 22.8441 42.5964 22.8441C44.6787 22.8441 46.4701 21.2576 47.2041 19.008L48.1435 19.946Z" fill="#EDA001"/>
<path d="M57.3411 16.1322V22.8442H56.0849V21.1548C55.447 22.3022 54.2671 23.1299 52.9985 23.1299C49.4653 23.092 48.4188 20.907 48.9047 18.8627C49.7674 15.2476 54.0248 15.9591 54.9956 13.694C55.6698 12.1079 54.0405 10.5701 52.7888 10.5701C51.4562 10.5701 50.7602 11.8807 50.7602 13.2728L49.3681 12.032C50.1565 10.9191 51.4415 10.2648 52.8048 10.283C55.616 10.283 57.132 12.4628 56.1283 14.5239C54.9525 16.9409 51.2728 16.715 50.318 19.2613C49.687 20.934 50.8409 22.784 52.9992 22.8445C54.4293 22.8445 55.5384 21.8758 56.0852 20.5987V16.1322H57.3411Z" fill="#EDA001"/>
<path d="M69.3687 6.05387V22.844H68.1114V21.0636C67.4482 22.3208 66.1499 23.114 64.7287 23.1301C60.5689 23.1301 58.5078 19.9199 58.5078 16.7097C58.5133 13.4995 60.5744 10.2838 64.7287 10.2838C66.1516 10.2999 67.451 11.0955 68.1114 12.3559V6.83615C68.6391 6.81493 69.1168 6.5179 69.3687 6.05387ZM68.1114 12.9383C67.5827 11.5948 66.1852 10.5696 64.7287 10.5696C61.5562 10.5696 59.9591 13.6398 59.9591 16.7094C59.9591 19.7741 61.5616 22.844 64.7287 22.844C66.1852 22.844 67.5827 21.8243 68.1114 20.4808V12.9383Z" fill="#EDA001"/>
<path d="M81.4715 19.8604L82.2698 20.6591C80.5359 22.882 77.5543 23.7136 74.92 22.7082C72.286 21.7028 70.6164 19.0966 70.8043 16.2833C70.9925 13.4704 72.994 11.1092 75.7385 10.4635C78.4827 9.8174 81.3274 11.038 82.7499 13.4721L81.8174 14.4111H72.5913C72.3504 15.1534 72.2282 15.9291 72.2299 16.7094C72.2299 20.0979 74.458 22.844 77.2042 22.844C79.0165 22.844 80.6026 21.6515 81.4715 19.8604ZM72.6915 14.125H81.7134C80.9209 12.0236 79.2027 10.5696 77.2042 10.5696C75.2057 10.5696 73.4813 12.025 72.6915 14.125Z" fill="#EDA001"/>
<path d="M32.4145 32.3898C32.4627 32.5157 32.5298 32.6256 32.6157 32.72C32.7016 32.8141 32.8053 32.8897 32.9268 32.9462C33.0486 33.0027 33.1827 33.0311 33.3292 33.0311C33.476 33.0311 33.6091 33.0027 33.7285 32.9462C33.848 32.8897 33.9496 32.8141 34.0335 32.72C34.1173 32.6256 34.1823 32.5157 34.2285 32.3898C34.2744 32.2642 34.2976 32.1321 34.2976 31.9935V31.3649C34.2976 31.2687 34.3113 31.2047 34.3384 31.1732C34.3657 31.1418 34.4085 31.126 34.4674 31.126H35.2281C35.2911 31.126 35.3383 31.1407 35.3698 31.1702C35.4009 31.1993 35.4166 31.2602 35.4166 31.3522V32.0503C35.4166 32.3607 35.3622 32.6423 35.2534 32.8959C35.1442 33.1495 34.9944 33.3664 34.8038 33.5468C34.6131 33.7271 34.3897 33.8664 34.1341 33.9649C33.8784 34.0631 33.606 34.1124 33.3169 34.1124C33.0233 34.1124 32.7454 34.0631 32.4836 33.9649C32.2215 33.8664 31.9922 33.7271 31.7951 33.5468C31.598 33.3664 31.4419 33.1495 31.3266 32.8959C31.2113 32.6423 31.1538 32.3607 31.1538 32.0503V27.2153C31.1538 26.9258 31.2082 26.6558 31.3174 26.4043C31.4262 26.1528 31.5771 25.9338 31.7701 25.7473C31.9628 25.5608 32.1914 25.415 32.4556 25.3103C32.7194 25.2056 33.0065 25.1529 33.3169 25.1529C33.6519 25.1529 33.9476 25.2107 34.2032 25.3257C34.4588 25.441 34.6737 25.5964 34.8476 25.7911C35.0217 25.9861 35.1538 26.2093 35.2438 26.4608C35.3338 26.7123 35.379 26.9724 35.379 27.2403V27.7622C35.379 27.8587 35.3663 27.9257 35.3414 27.9634C35.316 28.001 35.2681 28.0202 35.1966 28.0202H34.4424C34.3709 28.0202 34.3236 28.001 34.3007 27.9634C34.2778 27.9257 34.2662 27.8652 34.2662 27.781V27.2718C34.2662 27.1335 34.2443 27.0015 34.2001 26.8755C34.156 26.7499 34.0933 26.6391 34.0116 26.5426C33.9298 26.4461 33.8312 26.3698 33.7159 26.3129C33.6006 26.2565 33.4719 26.2281 33.3292 26.2281C33.1868 26.2281 33.0548 26.2555 32.9333 26.3099C32.8118 26.3643 32.7067 26.4389 32.6188 26.533C32.5308 26.6274 32.4627 26.7373 32.4145 26.8632C32.3662 26.9888 32.3423 27.1209 32.3423 27.2591V31.9935C32.3423 32.1321 32.3662 32.2642 32.4145 32.3898Z" fill="#EDA001"/>
<path d="M37.715 25.5114C37.715 25.4443 37.7328 25.3899 37.7683 25.3478C37.8039 25.3061 37.8532 25.2849 37.9162 25.2849H38.7145C38.7775 25.2849 38.8247 25.3061 38.8562 25.3478C38.8877 25.3899 38.9034 25.4443 38.9034 25.5114V33.7544C38.9034 33.8256 38.8887 33.881 38.8593 33.921C38.8299 33.9607 38.7816 33.9806 38.7145 33.9806H37.9162C37.8447 33.9806 37.7937 33.9607 37.7622 33.921C37.7307 33.881 37.715 33.8256 37.715 33.7544V25.5114Z" fill="#EDA001"/>
<path d="M40.8872 25.4861C40.8872 25.419 40.905 25.3687 40.9406 25.3352C40.9762 25.3016 41.0148 25.2849 41.0569 25.2849H44.7726C44.8191 25.2849 44.8585 25.2996 44.8924 25.329C44.9259 25.3585 44.9423 25.4088 44.9423 25.4799V26.1715C44.9423 26.243 44.9259 26.294 44.8924 26.3255C44.8585 26.357 44.8191 26.3727 44.7726 26.3727H43.5092V33.7794C43.5092 33.8464 43.4924 33.8968 43.4585 33.9303C43.4253 33.9638 43.3873 33.9806 43.3453 33.9806H42.4969C42.4504 33.9806 42.4097 33.9638 42.3744 33.9303C42.3385 33.8968 42.3207 33.8464 42.3207 33.7794V26.3727H41.0569C41.0148 26.3727 40.9762 26.357 40.9406 26.3255C40.905 26.294 40.8872 26.243 40.8872 26.1715V25.4861Z" fill="#EDA001"/>
<path d="M48.0955 30.3652L46.4485 25.5426C46.4272 25.4673 46.4303 25.4053 46.4577 25.3571C46.4847 25.3092 46.5299 25.2849 46.5929 25.2849H47.3912C47.4333 25.2849 47.4741 25.2965 47.5137 25.3194C47.5538 25.3427 47.5842 25.3961 47.6051 25.4799L48.6112 28.7747L48.6865 29.1203L48.7621 28.7747L49.7552 25.4799C49.7719 25.4088 49.8024 25.3585 49.8465 25.329C49.8907 25.2999 49.9335 25.2849 49.9756 25.2849H50.7804C50.8475 25.2849 50.8923 25.3092 50.9153 25.3571C50.9385 25.4053 50.9375 25.4693 50.9122 25.5491L49.2775 30.3529V33.7479C49.2775 33.8232 49.2648 33.881 49.2398 33.921C49.2145 33.9607 49.1707 33.9806 49.1077 33.9806H48.2652C48.1982 33.9806 48.153 33.9597 48.1301 33.9176C48.1071 33.8759 48.0955 33.8194 48.0955 33.7479V30.3652Z" fill="#EDA001"/>
<path d="M25.2266 31.4673C25.0938 31.4728 25.0271 31.3944 24.9477 31.3469C23.4577 30.453 21.8603 29.9082 20.1165 29.7799C18.4876 29.6605 16.9275 29.9698 15.3824 30.4233C13.6173 30.9417 11.9282 31.6699 10.2073 32.3102C8.66631 32.8837 7.10415 33.3884 5.47389 33.6294C3.87614 33.8655 2.27805 33.8836 0.70802 33.4117C0.522203 33.3559 0.34015 33.2872 0.157071 33.2218C0.122851 33.2095 0.0927372 33.1852 0 33.1311C0.328858 33.1506 0.591329 33.1725 0.853799 33.1807C2.97752 33.2464 4.9623 32.6575 6.91047 31.8944C8.70327 31.1918 10.427 30.3261 12.2235 29.6321C13.7693 29.0353 15.3499 28.5607 17.0048 28.4036C19.6822 28.1493 22.1194 28.7821 24.2386 30.4794C24.5949 30.7648 24.9689 31.0478 25.2266 31.4673Z" fill="#EDA001"/>
<path d="M57.7734 31.4673C57.9062 31.4728 57.9729 31.3944 58.0523 31.3469C59.5423 30.453 61.1397 29.9082 62.8836 29.7799C64.5125 29.6605 66.0726 29.9698 67.6176 30.4233C69.3827 30.9417 71.0718 31.6699 72.7928 32.3102C74.3337 32.8837 75.8959 33.3884 77.5261 33.6294C79.1239 33.8655 80.722 33.8836 82.292 33.4117C82.4778 33.3559 82.6599 33.2872 82.8429 33.2218C82.8772 33.2095 82.9073 33.1852 83 33.1311C82.6712 33.1506 82.4087 33.1725 82.1462 33.1807C80.0225 33.2464 78.0377 32.6575 76.0896 31.8944C74.2967 31.1918 72.5731 30.3261 70.7765 29.6321C69.2308 29.0353 67.6501 28.5607 65.9952 28.4036C63.3178 28.1493 60.8806 28.7821 58.7614 30.4794C58.4051 30.7648 58.0311 31.0478 57.7734 31.4673Z" fill="#EDA001"/>
<path d="M32.7126 3.09944e-05V4.12871C32.7126 4.79087 32.8368 5.2347 33.0852 5.45987C33.3333 5.6847 33.8213 5.79797 34.5489 5.79797C35.2764 5.79797 35.7637 5.6847 36.0101 5.45987C36.2561 5.2347 36.3796 4.79087 36.3796 4.12871V3.09944e-05H37.1766V4.34258C37.1766 5.12794 36.9723 5.69086 36.5641 6.03135C36.1565 6.37219 35.4844 6.5426 34.5489 6.5426C33.6136 6.5426 32.9415 6.37219 32.5336 6.03135C32.1254 5.69086 31.9218 5.12794 31.9218 4.34258V3.09944e-05H32.7126Z" fill="#EDA001"/>
<path d="M46.0001 6.37558V1.43051e-06H51.0124V0.733684H46.7906V2.60416H49.3435V3.33785H46.7906V5.6419H51.2721V6.37558H46.0001Z" fill="#EDA001"/>
<path d="M43.0434 3.57435C43.4975 3.49325 43.8633 3.28861 44.1405 2.95941C44.4177 2.63022 44.5563 2.23497 44.5563 1.773C44.5563 1.21829 44.379 0.784375 44.0248 0.470575C43.6706 0.156775 43.182 4.62532e-05 42.5581 4.62532e-05H38.9027V6.37494H39.6939V5.16902H39.6891V1.96292H39.6939V0.733387H42.5468C42.9198 0.733387 43.2097 0.826807 43.4154 1.01331C43.6214 1.20049 43.7244 1.46091 43.7244 1.79558C43.7244 2.13847 43.6214 2.39854 43.4154 2.57546C43.2097 2.75272 42.9068 2.84101 42.5061 2.84101H40.0854V3.58599H42.1653L43.7593 6.37494H44.637L43.0434 3.57435Z" fill="#EDA001"/>
<path d="M28.1684 4.62532e-05H27.51L24.386 6.37494H25.2347L26.0778 4.66016H26.0871L26.4519 3.91484H26.4416L27.8395 1.09133L29.248 3.91484H26.893L26.5282 4.66016H29.6005L30.4666 6.37494H31.3272L28.1684 4.62532e-05Z" fill="#EDA001"/>
<path d="M55.5034 2.80649L57.803 8.39233e-05H56.8445L55.0298 2.22201L55.5034 2.80649Z" fill="#EDA001"/>
<path d="M55.234 3.13582L55.2357 3.13411L54.7625 2.54997L54.7604 2.55236L52.6702 0.000215054H51.7001L54.2642 3.17038L51.6655 6.37579H52.5956L54.7375 3.74768L56.8571 6.37579H57.8731L55.234 3.13582Z" fill="#EDA001"/>
</svg>
