<svg width="18" height="18" viewBox="0 0 18 18" fill="none" xmlns="http://www.w3.org/2000/svg">
<path d="M15.7184 0H2.21835C0.979095 0 -0.0316467 1.01074 -0.0316467 2.21836V12.3117C-0.0316467 13.551 0.979095 14.5301 2.21835 14.5301H5.59335V17.4825C5.59335 17.8283 5.98077 18.0292 6.26554 17.8235L10.6566 14.5301H15.7191C16.9583 14.5301 17.9691 13.5193 17.9691 12.3117V2.21836C17.9684 1.01074 16.9875 0 15.7184 0ZM16.3125 12.375C16.3125 12.6826 16.0576 12.9375 15.75 12.9375H10.125L7.31249 15.0469V12.9375H2.24999C1.94238 12.9375 1.68749 12.6826 1.68749 12.375V2.25C1.68749 1.94238 1.94238 1.6875 2.24999 1.6875H15.75C16.0576 1.6875 16.3125 1.94238 16.3125 2.25V12.375Z" fill="black"/>
</svg>
