<svg width="11" height="16" viewBox="0 0 11 16" fill="none" xmlns="http://www.w3.org/2000/svg">
<g clip-path="url(#clip0_1976_756)">
<mask id="mask0_1976_756" style="mask-type:luminance" maskUnits="userSpaceOnUse" x="0" y="0" width="11" height="16">
<path d="M10.8123 0H0.244919V16H10.8123V0Z" fill="white"/>
</mask>
<g mask="url(#mask0_1976_756)">
<path d="M6.77473 14.328C6.60618 14.328 6.4619 14.2007 6.44558 14.0305C6.42836 13.8502 6.56206 13.69 6.74429 13.6729L10.1505 13.3527V0.69881C8.84231 0.69706 7.2636 0.687871 5.69373 0.677369C4.01222 0.667305 2.3413 0.656365 1.02558 0.656365C0.84291 0.656365 0.694656 0.50934 0.694656 0.328183C0.694656 0.147026 0.84291 0 1.02558 0C2.34219 0 4.01486 0.0100643 5.69857 0.0210037C7.40079 0.0315055 9.11452 0.0424449 10.4815 0.0424449C10.6641 0.0424449 10.8123 0.189908 10.8123 0.370628V13.6515C10.8123 13.8209 10.6826 13.9622 10.5123 13.9784L6.80693 14.3276C6.7959 14.3276 6.78532 14.328 6.77473 14.328Z" fill="#052D23"/>
<path d="M6.57368 15.9994C6.54412 15.9994 6.51412 15.995 6.48544 15.9876L0.48922 14.3375C0.345822 14.2977 0.246538 14.1682 0.246538 14.0207L0.245663 11.2031C0.24434 7.98824 0.243012 4.84776 0.258455 1.70508C0.26022 1.36027 0.34361 1.03121 0.425678 0.71222C0.460093 0.576134 0.494509 0.440922 0.522747 0.304835C0.54172 0.209881 0.602609 0.128054 0.688206 0.0812339C0.773363 0.0357259 0.875281 0.0278496 0.967051 0.0632933C1.98407 0.455362 2.91726 0.786606 3.81956 1.10823C4.72848 1.43116 5.66741 1.76546 6.69414 2.16104C6.82165 2.20961 6.90549 2.33169 6.90549 2.46647V15.6703C6.90549 15.7723 6.8574 15.8695 6.77489 15.9316C6.71621 15.9762 6.64516 15.9994 6.57368 15.9994ZM0.908817 13.7717L6.24321 15.2394V2.69226C5.30649 2.33475 4.43817 2.02583 3.59631 1.72653C2.79637 1.4421 1.97128 1.14848 1.08399 0.811552C1.07825 0.832555 1.07384 0.853123 1.06854 0.873683C0.993531 1.16686 0.922933 1.44341 0.921606 1.70815C0.906169 4.84951 0.907497 7.98911 0.908817 11.2023V13.7717Z" fill="#052D23"/>
</g>
</g>
<defs>
<clipPath id="clip0_1976_756">
<rect width="11" height="16" fill="white"/>
</clipPath>
</defs>
</svg>
