<svg width="79" height="464" viewBox="0 0 79 464" fill="none" xmlns="http://www.w3.org/2000/svg">
<path fill-rule="evenodd" clip-rule="evenodd" d="M0.613579 1.93918C0.980329 2.9487 1.39645 4.30682 0.888642 5.02585C-0.0987608 6.42755 1.54456 6.71082 1.6574 7.52426C1.95362 9.71762 4.57024 8.46844 5.67049 11.8456C5.70576 11.9546 5.77628 12.1071 5.85387 12.1216C12.7868 13.7921 5.54354 25.4344 7.71582 27.2574C7.94857 27.4607 7.70172 28.4339 7.41255 30.2278C11.6866 30.2278 9.47904 34.8979 8.83723 36.9242C8.72439 37.2728 9.02061 38.2025 9.0065 38.7544C8.92187 42.1897 9.73295 43.1412 8.30121 44.3032C6.70726 45.6033 7.94857 46.7435 7.17981 47.7167C5.88208 49.3509 6.40399 49.9174 7.93447 50.5129C9.61305 51.1666 8.66796 51.8929 9.59189 53.3963C10.6921 55.1829 9.17577 56.9187 8.66091 57.783C12.8221 64.3195 10.6005 67.3046 10.9672 68.5974C12.5118 68.9242 13.7249 70.4131 13.739 71.9891C13.739 71.9891 13.7531 75.4099 13.7108 75.5624C13.1959 77.5597 14.007 76.9641 14.0564 77.6759C14.1339 78.9178 14.8604 78.2714 15.1566 79.4335C15.9818 82.7235 14.3737 83.4062 14.4654 84.7354C14.5571 86.0572 14.0987 87.4008 14.6065 88.7009C14.7546 89.0785 15.1989 93.9955 14.8886 96.7626C15.3752 97.0458 15.8478 97.3945 15.876 97.9682C15.9536 99.4644 15.9324 100.961 15.4952 102.413C15.1284 103.626 15.9395 102.849 15.7914 105.071C15.7067 106.233 16.1158 106.451 16.5108 108.238C16.948 110.17 18.2669 109.683 18.2246 111.012C18.1259 113.779 19.2543 120.432 17.6181 122.538C16.539 123.933 17.5123 125.102 16.5037 125.901C15.8972 126.373 16.4826 127.31 16.2286 128.051C15.7843 129.387 17.1314 129.162 16.4896 131.399C16.278 132.103 15.8831 132.779 15.7702 133.498C15.6715 134.123 15.3329 134.507 15.0156 134.972C13.7813 136.839 14.0423 140.448 12.5047 141.182C12.5964 143.775 13.3581 141.124 13.1536 145.242C12.8433 151.43 15.3823 151.662 15.6362 153.369C15.6574 153.543 15.5234 153.776 15.5939 153.892C15.9042 154.393 15.6503 154.8 15.4528 155.236C14.811 156.724 16.3274 156.855 14.9662 159.136C14.6841 159.608 14.0564 161.591 14.4231 161.997C14.8463 162.469 14.6276 162.724 13.8025 165.055C14.7334 165.658 14.8392 168.236 13.4357 168.57C13.5556 170.233 14.3173 170.829 13.4146 171.984C13.2312 172.216 13.3511 172.95 13.2241 173.204C12.7798 174.061 13.1324 176.102 13.3017 176.24C13.9435 176.784 13.6826 177.3 13.5345 178.905C15.5727 179.428 13.0549 181.796 13.5486 182.863C13.612 182.987 13.4992 183.212 13.4357 183.379C12.6952 185.427 14.5219 185.616 14.6559 186.517C14.7334 187.01 14.9591 187.475 14.7405 188.013C14.5148 188.579 15.1425 188.979 15.1425 189.523C15.1425 190.656 15.1707 191.245 14.804 191.688C14.804 191.688 14.7899 192.385 14.5077 192.748C14.2327 193.089 13.8941 193.365 13.5768 193.67L13.6755 193.714C12.6669 196.198 12.9984 194.651 14.5501 197.65C15.8619 200.185 14.6418 199.11 16.0241 202.444C16.673 204.005 15.8337 203.846 16.2921 204.921C16.7012 205.85 16.4826 206.366 15.7702 208.087C15.3329 209.162 18.1964 210.506 18.1611 212.583C18.1329 214.653 19.6634 212.22 18.1047 218.124C17.8085 219.265 19.346 219.918 17.8297 221.247C16.6448 222.279 18.1259 222.685 17.2302 224.152C17.1385 224.305 17.1526 224.566 17.1878 224.763C17.336 225.576 18.1682 228.074 17.9002 229.142C17.2936 231.757 16.6589 234.233 16.5954 234.466C16.4473 234.952 16.5742 236.056 16.3697 236.557C15.9324 237.64 16.673 237.618 17.0327 241.416C17.1596 242.789 17.3077 244.14 17.8156 245.404C18.2176 246.42 18.8171 247.35 18.8523 248.585C18.8523 248.585 19.3672 249.267 19.5082 250.625C20.4815 260.198 19.0851 255.847 20.0019 263.786C20.3475 266.793 21.0176 268.95 20.6649 270.148C20.4392 270.896 20.5732 271.099 20.6931 274.411C20.7213 275.312 19.9878 279.72 20.5098 282.858C20.7495 284.303 20.6438 287.121 20.6579 287.245C21.0317 289.365 20.5309 289.336 20.5098 289.946C20.277 296.556 19.4659 292.547 19.8961 296.897C20.016 298.175 19.4518 298.182 19.2967 299.867C19.0004 303.049 19.0075 303.354 19.5858 304.312C19.8256 304.704 20.9329 306.23 21.0035 307.544C21.1657 310.449 21.0458 310.74 20.7072 311.052C20.1007 311.604 20.3969 312.207 20.3193 312.824C19.4095 319.797 20.7637 318.867 17.8156 329.928C18.7889 331.795 18.1047 332.31 17.5546 335.833C16.6871 341.433 16.9057 334.242 16.7083 343.982C16.6659 345.761 17.0397 345.202 16.6166 348.005C15.869 352.937 16.8634 353.67 17.1244 354.876C17.336 355.857 17.5334 356.837 17.9919 357.687C18.0906 357.861 18.1611 358.173 18.1118 358.369C17.7027 360.076 20.0795 367.114 19.4025 370.535C19.3531 370.782 19.346 371.13 19.4377 371.334C19.7904 372.067 19.5647 373.44 19.6916 373.868C20.1924 375.532 19.3883 376.527 19.5082 377.703C19.5153 377.856 20.0372 382.133 20.1289 382.547C20.538 384.298 20.136 385.278 20.4251 386.411C21.5113 390.725 19.1062 386.455 22.0191 393.108C22.8513 393.34 23.1475 393.899 22.7949 394.931C22.3788 396.136 23.5566 396.826 23.2251 398.584C23.2251 398.584 23.6271 400.421 23.5213 401.496C23.3803 402.92 23.9163 404.111 23.7823 404.946C23.5354 406.507 24.1702 407.074 23.6553 407.975C22.9642 409.166 23.7047 413.24 23.7329 413.683C23.8669 415.571 24.939 415.877 25.1364 416.61C25.3974 417.627 25.7994 419.457 25.4891 420.452C24.7133 422.987 25.2352 423.764 25.3551 425.173C26.2931 436.416 27.344 433.67 26.8009 438.464C26.7163 439.183 26.8503 439.946 26.5329 440.614C26.5329 440.614 26.5329 440.737 26.547 440.788C26.7939 441.812 26.0886 442.255 26.3354 443.49C26.3848 443.7 26.3284 443.955 26.2861 444.18C26.0674 445.298 25.7712 446.409 25.9193 447.601C26.1027 449.162 26.1168 449.474 26.4835 449.845C27.8377 451.225 26.7798 452.154 28.1974 454.173C29.2412 455.677 30.673 460.892 30.2427 462.823C30.2216 462.932 30.1934 463.063 30.2145 463.172C30.2709 463.484 30.3132 463.746 30.3626 464L78.9358 464C79.1826 462.206 78.703 442.35 77.7579 433.097C77.6098 431.666 78.1035 432.16 78.3151 430.547C78.6043 428.281 76.4955 415.368 76.9751 413.727C77.5957 411.65 77.4617 407.604 76.4955 405.171C76.0935 404.169 76.5589 404.031 76.4038 403.355C76.1287 402.201 75.3459 401.249 75.5998 399.862L75.5857 399.775C75.1413 398.852 74.9227 391.517 73.498 389.382C73.1595 388.866 72.4189 382.497 72.3413 381.814C71.7207 375.989 71.1 377.478 70.9519 373.062C70.9096 371.653 72.2849 371.276 72.3977 368.959C72.4119 368.813 72.4612 368.639 72.5388 368.552C73.1383 367.906 73.0537 367.027 73.0184 366.148C72.8844 362.923 73.103 361.827 72.694 360.338C72.1862 358.493 72.6869 357.447 72.5952 356.597C72.1791 352.901 73.9071 350.061 73.4627 348.826C72.9902 347.497 73.3993 346.146 73.2582 344.832C74.4149 341.752 71.8758 332.979 72.165 330.487C73.237 321.155 71.6078 322.622 71.7912 319.027C71.8899 317.153 72.4119 314.502 72.2708 313.26C72.1721 312.352 72.5811 310.82 72.5811 310.82L72.6658 304.639C72.6799 303.433 73.2864 303.855 73.1101 302.33C72.701 298.865 73.7307 297.819 73.3076 295.873C73.1947 295.394 73.1595 294.907 73.3993 294.399C73.6391 293.89 73.371 292.59 73.5685 292.111C74.027 290.956 73.4204 289.896 73.3993 288.254C73.2935 280.512 73.7237 283.984 74.1469 280.701C75.1554 273.017 73.4557 253.247 73.6955 251.279C73.7448 250.814 74.3443 246.849 74.3867 246.144C74.4501 245.048 74.436 242.055 74.5136 241.685C75.1343 238.417 73.5756 236.231 74.1821 233.173C74.3584 232.316 74.0129 231.35 74.1398 230.464C74.161 230.275 75.4657 226.789 75.0355 226.789C74.6829 223.985 73.6391 226.055 73.505 222.802C73.4486 221.393 72.5176 222.061 72.4471 220.877C72.292 218.175 71.7489 219.236 72.0804 216.73C72.4119 214.202 71.234 213.919 72.6587 210.113C69.0265 203.904 71.7277 202.495 69.2663 199.837C68.6456 199.161 68.8854 198.115 68.5046 197.447C68.159 196.844 67.3056 194.339 67.362 193.365C66.3393 192.98 66.5298 193.3 66.4099 190.395C66.1489 183.829 65.0416 189.327 65.1756 178.404C65.2038 175.869 66.0925 175.542 65.2673 174.555C62.2628 170.945 64.8935 168.839 62.425 163.392C61.8255 162.055 62.1358 161.162 61.3529 160.508C60.9509 160.167 61.1907 158.351 61.6703 157.414C62.7917 155.221 60.2033 154.044 64.8582 147.581C65.7328 146.368 64.2164 145.358 64.964 142.649C65.7469 139.853 66.0643 140.659 66.4874 139.729C66.699 139.286 67.5454 137.616 67.5806 136.476C67.6512 134.217 68.7161 132.045 68.5398 130.411C68.2718 127.797 69.1252 127.847 68.7091 126.475C68.5398 125.901 68.4129 125.247 68.7726 124.732C69.1675 124.18 69.1393 123.388 69.7952 122.996C69.9222 122.923 70.0068 119.488 70.0139 119.335C70.6557 104.984 68.6315 111.484 69.6753 98.8761C69.7388 98.1135 69.1534 96.7844 69.9715 95.9637C71.4879 94.4312 70.6134 86.8488 70.4935 86.4058C70.296 85.6722 70.296 84.975 70.9166 84.4158C69.9433 82.9414 71.495 81.8447 70.0773 80.1452C69.4144 79.3391 69.9574 77.6033 70.1267 77.1602C71.7912 72.8098 71.0577 77.1094 71.5232 70.8488C71.5232 70.8488 72.1579 69.6069 72.2849 68.9823C72.567 67.6024 72.9479 65.5252 72.2637 64.61C71.9252 64.167 71.7771 62.4821 70.5569 61.6468C70.0562 61.3055 70.2396 60.2524 70.2466 59.8021C70.3595 53.6868 68.2577 51.5515 68.1307 50.1861C67.9615 48.3777 67.9474 47.448 67.6864 47.2156C66.5227 46.1552 67.8345 44.9859 68.0532 42.4512C68.1731 41.1512 68.293 38.7907 68.293 38.7907C68.6386 37.1711 67.3479 36.9387 67.8698 35.0721C67.9967 34.6219 67.8627 34.4258 67.7358 31.4044C67.7217 31.1067 67.9967 30.0898 68.032 29.7703C68.166 28.768 68.1378 27.7367 68.8784 26.9015C69.4214 26.3059 68.3988 22.1225 68.1025 21.4398C67.101 19.1666 68.0109 17.7939 67.1222 16.2615C66.2124 14.6854 66.967 14.6709 66.2194 13.6032C64.3927 10.9959 65.3096 9.13662 63.9131 4.35769C63.4124 2.63641 63.2925 1.19836 63.3277 -2.76814e-06L-2.02821e-05 0C0.0846142 0.428528 0.275041 1.01678 0.613579 1.93918Z" fill="white"/>
</svg>
