<svg width="18" height="18" viewBox="0 0 18 18" fill="none" xmlns="http://www.w3.org/2000/svg">
<g clip-path="url(#clip0_1469_9633)">
<path d="M0.5625 9C0.5625 7.33122 1.05735 5.69992 1.98448 4.31238C2.9116 2.92484 4.22936 1.84338 5.77111 1.20477C7.31286 0.566153 9.00936 0.399061 10.6461 0.724625C12.2828 1.05019 13.7862 1.85378 14.9662 3.03379C16.1462 4.21379 16.9498 5.71721 17.2754 7.35392C17.6009 8.99064 17.4338 10.6871 16.7952 12.2289C16.1566 13.7706 15.0752 15.0884 13.6876 16.0155C12.3001 16.9426 10.6688 17.4375 9 17.4375C6.76224 17.4375 4.61612 16.5486 3.03379 14.9662C1.45145 13.3839 0.5625 11.2378 0.5625 9ZM16.3125 9C16.3125 7.55372 15.8836 6.13993 15.0801 4.93739C14.2766 3.73486 13.1346 2.7976 11.7984 2.24413C10.4622 1.69067 8.99189 1.54585 7.5734 1.82801C6.15492 2.11016 4.85195 2.80661 3.82928 3.82928C2.80661 4.85195 2.11016 6.15492 1.82801 7.5734C1.54585 8.99189 1.69067 10.4622 2.24413 11.7984C2.7976 13.1346 3.73486 14.2766 4.93739 15.0801C6.13993 15.8836 7.55372 16.3125 9 16.3125C10.9394 16.3125 12.7994 15.5421 14.1707 14.1707C15.5421 12.7994 16.3125 10.9394 16.3125 9Z" fill="white"/>
<path d="M6.82324 12.1444L9.96199 9L6.82324 5.85563C6.71847 5.75024 6.65967 5.60767 6.65967 5.45907C6.65967 5.31046 6.71847 5.16789 6.82324 5.0625C6.92863 4.95774 7.0712 4.89893 7.2198 4.89893C7.36841 4.89893 7.51097 4.95774 7.61636 5.0625L11.1939 8.64C11.2887 8.73584 11.3418 8.8652 11.3418 9C11.3418 9.13481 11.2887 9.26417 11.1939 9.36L7.61636 12.9375C7.51097 13.0423 7.36841 13.1011 7.2198 13.1011C7.0712 13.1011 6.92863 13.0423 6.82324 12.9375C6.71847 12.8321 6.65967 12.6895 6.65967 12.5409C6.65967 12.3923 6.71847 12.2498 6.82324 12.1444Z" fill="white"/>
</g>
<defs>
<clipPath id="clip0_1469_9633">
<rect width="18" height="18" fill="white" transform="translate(0 18) rotate(-90)"/>
</clipPath>
</defs>
</svg>
