<svg width="6" height="10" viewBox="0 0 6 10" fill="none" xmlns="http://www.w3.org/2000/svg">
<path d="M1.19891 9.80648L5.58393 5.63967C5.66245 5.55889 5.72523 5.46022 5.7682 5.35003C5.81117 5.23984 5.83337 5.12059 5.83337 5C5.83337 4.87941 5.81117 4.76016 5.7682 4.64997C5.72523 4.53978 5.66245 4.44111 5.58393 4.36033L1.19891 0.193515C1.12524 0.123406 1.04019 0.0705286 0.948597 0.0379027C0.857008 0.00527676 0.76068 -0.00645923 0.665114 0.00336487C0.569547 0.013189 0.476614 0.0443808 0.391619 0.0951593C0.306624 0.145938 0.231233 0.215309 0.169749 0.299311C0.108266 0.383313 0.0618939 0.480302 0.0332818 0.58474C0.00466961 0.689177 -0.00562293 0.799018 0.00299255 0.907991C0.011608 1.01696 0.0389627 1.12294 0.0834941 1.21985C0.128025 1.31677 0.188862 1.40274 0.26253 1.47285L3.97381 5L0.262529 8.52715C0.188862 8.59726 0.128025 8.68323 0.0834934 8.78015C0.0389621 8.87707 0.0116073 8.98303 0.00299184 9.09201C-0.00562367 9.20098 0.00466885 9.31082 0.033281 9.41526C0.0618931 9.5197 0.108265 9.61669 0.169748 9.70069C0.231232 9.78469 0.306624 9.85406 0.391618 9.90484C0.476613 9.95562 0.569546 9.98681 0.665113 9.99663C0.760679 10.0065 0.857007 9.99472 0.948596 9.9621C1.04018 9.92947 1.12524 9.87659 1.19891 9.80648Z" fill="white"/>
</svg>
