<svg width="16" height="16" viewBox="0 0 16 16" fill="none" xmlns="http://www.w3.org/2000/svg">
<path d="M11.2194 14.7549C10.6768 14.7509 10.1366 14.6828 9.60998 14.552C7.79147 14.1133 5.91884 13.0002 4.33792 11.4179C2.75699 9.8356 1.64257 7.96263 1.20381 6.14585C0.741813 4.23473 1.07132 2.59969 2.13059 1.54042L2.43304 1.23797C2.70745 0.96411 3.0793 0.810303 3.46699 0.810303C3.85467 0.810303 4.22652 0.96411 4.50094 1.23797L6.23898 2.97567C6.51301 3.24999 6.66694 3.62188 6.66694 4.00962C6.66694 4.39737 6.51301 4.76925 6.23898 5.04357L5.21232 6.06989C5.70449 6.93354 6.37391 7.79788 7.16506 8.58904C7.95622 9.38019 8.82126 10.05 9.68456 10.5421L10.7109 9.51546C10.8466 9.37965 11.0078 9.27192 11.1852 9.19841C11.3626 9.12491 11.5528 9.08708 11.7448 9.08708C11.9369 9.08708 12.127 9.12491 12.3044 9.19841C12.4818 9.27192 12.643 9.37965 12.7788 9.51546L14.5165 11.2532C14.7906 11.5274 14.9445 11.8992 14.9445 12.2869C14.9445 12.6747 14.7906 13.0465 14.5165 13.3207L14.2137 13.6232C13.4669 14.3713 12.4333 14.7549 11.2194 14.7549ZM3.46699 1.85016C3.41161 1.84988 3.35673 1.86066 3.30557 1.88186C3.25441 1.90307 3.20799 1.93427 3.16905 1.97363L2.86625 2.27608C2.07301 3.06932 1.84132 4.35716 2.21383 5.90028C2.60819 7.53497 3.62341 9.23348 5.07219 10.6819C6.52097 12.1303 8.21913 13.1445 9.85417 13.5403C11.3976 13.9128 12.6848 13.6811 13.478 12.8879L13.7805 12.5854C13.8595 12.5063 13.9039 12.3991 13.9039 12.2873C13.9039 12.1755 13.8595 12.0683 13.7805 11.9892L12.0431 10.2515C11.964 10.1724 11.8568 10.1281 11.745 10.1281C11.6332 10.1281 11.526 10.1724 11.4469 10.2515L10.1459 11.5525C10.0678 11.6306 9.9669 11.6818 9.85778 11.6988C9.74866 11.7158 9.63697 11.6976 9.53888 11.6468C8.47233 11.0954 7.3971 10.2924 6.4294 9.3247C5.4617 8.357 4.66049 7.28247 4.10761 6.21591C4.05684 6.11786 4.03858 6.00619 4.05548 5.89707C4.07238 5.78795 4.12355 5.68704 4.20161 5.60893L5.50298 4.30791C5.582 4.22882 5.62639 4.1216 5.62639 4.0098C5.62639 3.89799 5.582 3.79077 5.50298 3.71168L3.76527 1.97363C3.7262 1.93433 3.67972 1.90318 3.62851 1.88199C3.57731 1.86079 3.5224 1.84997 3.46699 1.85016Z" fill="#D6AB3D"/>
<path d="M11.775 8.50034C11.637 8.50034 11.5047 8.44553 11.4071 8.34796C11.3096 8.25039 11.2547 8.11806 11.2547 7.98007C11.2537 7.06736 10.8907 6.1923 10.2454 5.54688C9.60002 4.90146 8.72501 4.53838 7.81229 4.53727C7.67431 4.53727 7.54198 4.48246 7.44441 4.38489C7.34684 4.28732 7.29202 4.15499 7.29202 4.017C7.29202 3.87902 7.34684 3.74669 7.44441 3.64912C7.54198 3.55155 7.67431 3.49673 7.81229 3.49673C10.2843 3.49673 12.2953 5.50844 12.2953 7.98007C12.2953 8.11806 12.2405 8.25039 12.1429 8.34796C12.0453 8.44553 11.913 8.50034 11.775 8.50034Z" fill="#D6AB3D"/>
<path d="M13.974 8.50013C13.836 8.50013 13.7037 8.44532 13.6061 8.34775C13.5086 8.25018 13.4538 8.11785 13.4538 7.97986C13.4538 4.86899 10.9218 2.33806 7.81229 2.33806C7.67431 2.33806 7.54198 2.28324 7.44441 2.18567C7.34684 2.0881 7.29202 1.95577 7.29202 1.81779C7.29202 1.6798 7.34684 1.54747 7.44441 1.4499C7.54198 1.35233 7.67431 1.29752 7.81229 1.29752C11.4968 1.29752 14.4943 4.29531 14.4943 7.97986C14.4943 8.11785 14.4395 8.25018 14.3419 8.34775C14.2443 8.44532 14.112 8.50013 13.974 8.50013Z" fill="#D6AB3D"/>
</svg>
