<svg width="20" height="20" viewBox="0 0 20 20" fill="none" xmlns="http://www.w3.org/2000/svg">
<path d="M10 14.7736C11.2708 13.6145 12.2135 12.5614 12.8281 11.6145C13.4427 10.6675 13.75 9.82665 13.75 9.09185C13.75 7.96378 13.388 7.0401 12.6641 6.32083C11.9401 5.60155 11.0521 5.24191 10 5.24191C8.94792 5.24191 8.0599 5.60155 7.33594 6.32083C6.61198 7.0401 6.25 7.96378 6.25 9.09185C6.25 9.82665 6.55729 10.6675 7.17188 11.6145C7.78646 12.5614 8.72917 13.6145 10 14.7736ZM10 16C9.85417 16 9.70833 15.9741 9.5625 15.9224C9.41667 15.8706 9.28646 15.793 9.17188 15.6895C8.49479 15.0686 7.89583 14.4631 7.375 13.8732C6.85417 13.2833 6.41927 12.7115 6.07031 12.1578C5.72135 11.6041 5.45573 11.0712 5.27344 10.5589C5.09115 10.0466 5 9.55757 5 9.09185C5 7.53946 5.5026 6.30272 6.50781 5.38163C7.51302 4.46054 8.67708 4 10 4C11.3229 4 12.487 4.46054 13.4922 5.38163C14.4974 6.30272 15 7.53946 15 9.09185C15 9.55757 14.9089 10.0466 14.7266 10.5589C14.5443 11.0712 14.2786 11.6041 13.9297 12.1578C13.5807 12.7115 13.1458 13.2833 12.625 13.8732C12.1042 14.4631 11.5052 15.0686 10.8281 15.6895C10.7135 15.793 10.5833 15.8706 10.4375 15.9224C10.2917 15.9741 10.1458 16 10 16ZM10 10.2096C10.3438 10.2096 10.638 10.088 10.8828 9.84476C11.1276 9.60155 11.25 9.30918 11.25 8.96766C11.25 8.62613 11.1276 8.33376 10.8828 8.09056C10.638 7.84735 10.3438 7.72574 10 7.72574C9.65625 7.72574 9.36198 7.84735 9.11719 8.09056C8.8724 8.33376 8.75 8.62613 8.75 8.96766C8.75 9.30918 8.8724 9.60155 9.11719 9.84476C9.36198 10.088 9.65625 10.2096 10 10.2096Z" fill="#484848"/>
</svg>
