<svg width="20" height="20" viewBox="0 0 20 20" fill="none" xmlns="http://www.w3.org/2000/svg">
<path d="M9.41668 13.0834C9.50001 13.1667 9.58334 13.25 9.66668 13.25C9.75001 13.3334 9.91668 13.3334 10 13.3334C10.0833 13.3334 10.25 13.3334 10.3333 13.25C10.4167 13.1667 10.5 13.1667 10.5833 13.0834L13.9167 9.75004C14.25 9.41671 14.25 8.91671 13.9167 8.58337C13.5833 8.25004 13.0833 8.25004 12.75 8.58337L10.8333 10.5V4.16671C10.8333 3.66671 10.5 3.33337 10 3.33337C9.50001 3.33337 9.16668 3.66671 9.16668 4.16671V10.5L7.25001 8.58337C6.91668 8.25004 6.41668 8.25004 6.08334 8.58337C5.75001 8.91671 5.75001 9.41671 6.08334 9.75004L9.41668 13.0834Z" fill="white"/>
<path d="M15.8333 10.8334C15.3333 10.8334 15 11.1667 15 11.6667V13.3334C15 14.25 14.25 15 13.3333 15H6.66668C5.75001 15 5.00001 14.25 5.00001 13.3334V11.6667C5.00001 11.1667 4.66668 10.8334 4.16668 10.8334C3.66668 10.8334 3.33334 11.1667 3.33334 11.6667V13.3334C3.33334 15.1667 4.83334 16.6667 6.66668 16.6667H13.3333C15.1667 16.6667 16.6667 15.1667 16.6667 13.3334V11.6667C16.6667 11.1667 16.3333 10.8334 15.8333 10.8334Z" fill="white"/>
</svg>
