<svg width="10" height="14" viewBox="0 0 10 14" fill="none" xmlns="http://www.w3.org/2000/svg">
<g clip-path="url(#clip0_1469_9968)">
<path d="M5.00239 6.80559C5.31607 6.80559 5.58378 6.69521 5.80556 6.47448C6.02732 6.25373 6.13821 5.98837 6.13821 5.67839C6.13821 5.36841 6.02653 5.10385 5.80317 4.88469C5.57979 4.66553 5.31128 4.55594 4.99761 4.55594C4.68393 4.55594 4.41622 4.66632 4.19444 4.88706C3.97267 5.1078 3.86179 5.37315 3.86179 5.68315C3.86179 5.99312 3.97347 6.25769 4.19683 6.47684C4.42021 6.69601 4.68872 6.80559 5.00239 6.80559ZM5 13.2733C3.34417 11.8262 2.09688 10.4767 1.25813 9.22458C0.419377 7.97259 0 6.83326 0 5.80663C0 4.33365 0.485322 3.11867 1.45597 2.16167C2.4266 1.20469 3.60794 0.726196 5 0.726196C6.39206 0.726196 7.5734 1.20469 8.544 2.16167C9.51467 3.11867 10 4.33365 10 5.80663C10 6.83326 9.58058 7.97259 8.74183 9.22458C7.90312 10.4767 6.65582 11.8262 5 13.2733Z" fill="white"/>
</g>
<defs>
<clipPath id="clip0_1469_9968">
<rect width="10" height="14" fill="white"/>
</clipPath>
</defs>
</svg>
