<svg width="21" height="21" viewBox="0 0 21 21" fill="none" xmlns="http://www.w3.org/2000/svg">
<path fill-rule="evenodd" clip-rule="evenodd" d="M17.4778 2.9884C15.5558 1.0633 12.9952 0.0031 10.2703 0C4.6562 0 0.0836999 4.5694 0.0836999 10.1866C0.0836999 11.9815 0.5518 13.7361 1.4446 15.2799L0 20.5592L5.4002 19.1425C6.8882 19.9547 8.5622 20.3825 10.2672 20.3825H10.2703C15.8844 20.3825 20.4538 15.8131 20.4569 10.1959C20.46 7.4741 19.4029 4.9135 17.4778 2.9884ZM10.2734 18.662H10.2703C8.7513 18.662 7.2602 18.2528 5.9613 17.4809L5.6513 17.298L2.4459 18.1381L3.3015 15.0133L3.1 14.694C2.2537 13.3455 1.8042 11.7893 1.8042 10.1866C1.8073 5.518 5.6048 1.7205 10.2765 1.7205C12.5395 1.7205 14.663 2.604 16.2626 4.2036C17.8622 5.8032 18.7426 7.9329 18.7395 10.1928C18.7395 14.8645 14.9389 18.662 10.2734 18.662Z" fill="black"/>
</svg>
