<svg width="24" height="14" viewBox="0 0 24 14" fill="none" xmlns="http://www.w3.org/2000/svg">
<path d="M3.22727 5.95455C1.72727 5.95455 0.5 4.72727 0.5 3.22727C0.5 1.72727 1.72727 0.5 3.22727 0.5C4.72727 0.5 5.95455 1.72727 5.95455 3.22727C5.95455 4.72727 4.72727 5.95455 3.22727 5.95455Z" fill="#BA8C21" stroke="white" stroke-miterlimit="10" stroke-linecap="round" stroke-linejoin="round"/>
<path d="M11.6819 5.95455C10.1819 5.95455 8.95459 4.72727 8.95459 3.22727C8.95459 1.72727 10.1819 0.5 11.6819 0.5C13.1819 0.5 14.4091 1.72727 14.4091 3.22727C14.4091 4.72727 13.1819 5.95455 11.6819 5.95455Z" fill="#BA8C21" stroke="white" stroke-miterlimit="10" stroke-linecap="round" stroke-linejoin="round"/>
<path d="M20.1365 5.95455C18.6365 5.95455 17.4092 4.72727 17.4092 3.22727C17.4092 1.72727 18.6365 0.5 20.1365 0.5C21.6365 0.5 22.8637 1.72727 22.8637 3.22727C22.8637 4.72727 21.6365 5.95455 20.1365 5.95455Z" fill="#BA8C21" stroke="white" stroke-miterlimit="10" stroke-linecap="round" stroke-linejoin="round"/>
<path d="M3.22727 13.4091C1.72727 13.4091 0.5 12.1818 0.5 10.6818C0.5 9.1818 1.72727 7.95453 3.22727 7.95453C4.72727 7.95453 5.95455 9.1818 5.95455 10.6818C5.95455 12.1818 4.72727 13.4091 3.22727 13.4091Z" fill="#BA8C21" stroke="white" stroke-miterlimit="10" stroke-linecap="round" stroke-linejoin="round"/>
<path d="M11.6819 13.4091C10.1819 13.4091 8.95459 12.1818 8.95459 10.6818C8.95459 9.1818 10.1819 7.95453 11.6819 7.95453C13.1819 7.95453 14.4091 9.1818 14.4091 10.6818C14.4091 12.1818 13.1819 13.4091 11.6819 13.4091Z" fill="#BA8C21" stroke="white" stroke-miterlimit="10" stroke-linecap="round" stroke-linejoin="round"/>
<path d="M20.1365 13.4091C18.6365 13.4091 17.4092 12.1818 17.4092 10.6818C17.4092 9.1818 18.6365 7.95453 20.1365 7.95453C21.6365 7.95453 22.8637 9.1818 22.8637 10.6818C22.8637 12.1818 21.6365 13.4091 20.1365 13.4091Z" fill="#BA8C21" stroke="white" stroke-miterlimit="10" stroke-linecap="round" stroke-linejoin="round"/>
</svg>
