<svg width="20" height="20" viewBox="0 0 20 20" fill="none" xmlns="http://www.w3.org/2000/svg">
<path d="M17.942 7.04399C17.436 7.97399 16.92 8.90199 16.426 9.83799C16.166 10.332 15.856 10.78 15.448 11.162C15.154 11.438 14.864 11.714 14.564 11.998C14.802 12.442 14.826 12.896 14.59 13.344C14.354 13.794 13.958 14.02 13.452 14.074C13.436 14.158 13.426 14.24 13.406 14.318C13.262 14.9 12.79 15.324 12.19 15.398C12.098 15.41 12.074 15.442 12.062 15.528C11.982 16.1 11.662 16.498 11.126 16.696C10.592 16.892 10.094 16.784 9.67599 16.4C9.38399 16.132 9.11799 15.836 8.82399 15.536C8.37999 16.042 7.85199 16.282 7.20199 16.086C6.55399 15.89 6.21599 15.428 6.14199 14.754C5.31599 14.646 4.83999 14.178 4.73199 13.348C3.32599 13.232 2.82199 11.506 3.94999 10.642C3.64599 10.066 3.33999 9.48799 3.03399 8.90999C2.75199 8.37799 2.46999 7.84399 2.18799 7.31199C2.03199 7.01799 2.05799 6.85399 2.29199 6.61999C3.31999 5.59199 4.34999 4.56199 5.37799 3.53399C5.62799 3.28399 5.80599 3.25999 6.10599 3.44199C7.37399 4.21399 8.64199 4.98799 9.90799 5.75999C9.95599 5.78999 10.004 5.81599 10.014 5.82199C10.392 5.54399 10.732 5.25399 11.106 5.02399C12.028 4.45799 12.966 3.91799 13.898 3.36799C14.212 3.18199 14.378 3.19999 14.64 3.45799C15.65 4.45399 16.66 5.44999 17.668 6.44999C17.772 6.55399 17.852 6.67999 17.944 6.79599V7.04399H17.942ZM9.46799 14.878C9.76799 15.18 10.04 15.468 10.328 15.742C10.47 15.878 10.654 15.89 10.836 15.818C11.012 15.746 11.114 15.61 11.14 15.422C11.166 15.244 11.094 15.104 10.98 14.972C10.858 14.832 10.834 14.666 10.902 14.494C10.968 14.324 11.1 14.232 11.276 14.208C11.436 14.186 11.562 14.258 11.682 14.358C11.996 14.62 12.45 14.452 12.512 14.054C12.538 13.892 12.482 13.752 12.374 13.628C12.188 13.414 12.194 13.14 12.38 12.962C12.566 12.784 12.83 12.794 13.046 12.988C13.068 13.008 13.092 13.03 13.116 13.048C13.38 13.248 13.752 13.11 13.814 12.784C13.848 12.61 13.774 12.474 13.654 12.354C12.716 11.416 11.778 10.478 10.842 9.54199C10.824 9.52399 10.802 9.51199 10.762 9.48199C10.64 9.61199 10.526 9.74799 10.398 9.86799C9.99399 10.244 9.51199 10.366 8.97999 10.246C8.39999 10.114 8.00799 9.75199 7.84199 9.17999C7.67599 8.60399 7.78999 8.07399 8.21799 7.63599C8.54999 7.29799 8.89799 6.97199 9.23799 6.64199C9.27599 6.60399 9.31199 6.56399 9.35799 6.51599C8.17799 5.79599 7.01399 5.08599 5.84799 4.37599C4.95399 5.26999 4.07199 6.15399 3.18799 7.03399C3.11399 7.10799 3.15599 7.15999 3.18799 7.22199C3.64799 8.09199 4.10799 8.96199 4.56799 9.83199C4.58999 9.87199 4.61399 9.90999 4.64799 9.96999C5.09399 9.43199 5.60599 9.01999 6.34399 9.19599C7.05199 9.36399 7.47599 9.83399 7.58799 10.554C8.32799 10.726 8.83999 11.118 8.98399 11.902C8.98999 11.938 9.05399 11.984 9.09599 11.992C9.67399 12.096 10.056 12.43 10.24 12.978C10.426 13.528 10.308 14.026 9.90799 14.45C9.76999 14.596 9.61999 14.73 9.46599 14.878H9.46799ZM14.208 4.26999C13.802 4.51399 13.458 4.72199 13.114 4.92799C12.684 5.18399 12.26 5.44999 11.822 5.68799C11.488 5.86799 11.172 6.06399 10.898 6.32999C10.238 6.96999 9.57799 7.60799 8.91999 8.24799C8.64199 8.51799 8.62799 8.91599 8.87999 9.17199C9.13599 9.43199 9.52599 9.42399 9.80599 9.14999C10.002 8.95799 10.194 8.76399 10.386 8.56999C10.668 8.28999 10.902 8.28999 11.186 8.56999C12.062 9.44599 12.938 10.322 13.814 11.196C13.852 11.234 13.894 11.27 13.938 11.312C14.29 10.976 14.654 10.666 14.968 10.314C15.206 10.048 15.388 9.72999 15.582 9.42799C15.676 9.28199 15.738 9.11399 15.822 8.96199C16.158 8.34599 16.494 7.73199 16.836 7.11999C16.888 7.02599 16.882 6.97399 16.804 6.89999C16.324 6.43199 15.844 5.96199 15.372 5.48599C14.978 5.08599 14.594 4.67399 14.206 4.26799L14.208 4.26999ZM4.80599 12.434C4.91399 12.384 5.04799 12.358 5.12999 12.278C5.61199 11.812 6.08199 11.338 6.55199 10.86C6.67199 10.738 6.68599 10.548 6.58599 10.42C6.51399 10.328 6.42999 10.24 6.33399 10.172C6.14999 10.04 5.87999 10.048 5.71799 10.206C5.26799 10.644 4.82199 11.088 4.38599 11.538C4.23399 11.696 4.21599 11.898 4.31199 12.1C4.40799 12.3 4.56999 12.4 4.80599 12.432V12.434ZM5.63199 13.268C5.67799 13.51 5.77599 13.674 5.97799 13.766C6.18599 13.858 6.38999 13.834 6.55199 13.676C7.02399 13.216 7.48799 12.748 7.95199 12.278C8.04799 12.18 8.09399 12.054 8.03799 11.924C7.88199 11.558 7.42799 11.316 7.07799 11.658C6.65799 12.068 6.24199 12.482 5.83599 12.906C5.74399 13.002 5.69999 13.146 5.63199 13.27V13.268ZM9.40199 13.504C9.38399 13.212 9.28799 13.046 9.08799 12.952C8.88199 12.854 8.65999 12.892 8.48999 13.06C8.07199 13.474 7.65599 13.888 7.24399 14.306C7.01999 14.534 7.01999 14.854 7.23399 15.066C7.44399 15.276 7.77199 15.274 7.99599 15.052C8.40999 14.642 8.82599 14.234 9.22799 13.814C9.32199 13.716 9.36599 13.572 9.40399 13.504H9.40199Z" fill="#484848"/>
</svg>
