<svg width="31" height="32" viewBox="0 0 31 32" fill="none" xmlns="http://www.w3.org/2000/svg">
<rect x="0.5" y="0.5" width="29.0518" height="30.5769" rx="9.5" fill="url(#paint0_linear_1457_1956)"/>
<rect x="0.5" y="0.5" width="29.0518" height="30.5769" rx="9.5" stroke="#E1E1E1"/>
<path d="M15.9414 20.8099L17.6556 15.0088C17.6832 14.8996 17.6882 14.7828 17.6703 14.6658C17.6524 14.5489 17.6121 14.4346 17.5518 14.3301C17.4915 14.2257 17.4126 14.1335 17.3203 14.0596C17.228 13.9856 17.1243 13.9316 17.0159 13.9009L11.135 12.4848C11.0361 12.4609 10.936 12.4577 10.8404 12.4752C10.7447 12.4928 10.6554 12.5308 10.5776 12.587C10.4997 12.6433 10.4349 12.7168 10.3866 12.8033C10.3384 12.8898 10.3078 12.9875 10.2966 13.091C10.2853 13.1945 10.2937 13.3017 10.3211 13.4064C10.3485 13.5112 10.3945 13.6115 10.4565 13.7015C10.5184 13.7916 10.5951 13.8697 10.6821 13.9314C10.7692 13.993 10.8648 14.0371 10.9637 14.0609L15.9413 15.2599L14.4908 20.1702C14.4621 20.2677 14.4524 20.3726 14.4623 20.4788C14.4722 20.585 14.5015 20.6904 14.5485 20.7891C14.5955 20.8878 14.6594 20.9778 14.7364 21.0539C14.8134 21.13 14.902 21.1908 14.9973 21.2329C15.0925 21.2749 15.1925 21.2972 15.2915 21.2987C15.3905 21.3002 15.4866 21.2807 15.5742 21.2415C15.6619 21.2022 15.7395 21.1439 15.8025 21.0698C15.8655 20.9958 15.9127 20.9074 15.9414 20.8099Z" fill="black"/>
<defs>
<linearGradient id="paint0_linear_1457_1956" x1="15.0259" y1="0" x2="15.0259" y2="31.5769" gradientUnits="userSpaceOnUse">
<stop stop-color="white"/>
<stop offset="1" stop-color="#EFEFEF"/>
</linearGradient>
</defs>
</svg>
