<svg width="16" height="14" viewBox="0 0 16 14" fill="none" xmlns="http://www.w3.org/2000/svg">
<mask id="path-1-inside-1_1833_1273" fill="white">
<path d="M4.24181 12.0208C6.19443 13.9734 9.36026 13.9734 11.3129 12.0208L15.5555 7.77816L7.77734 -1.34706e-05L-0.00083071 7.77816L4.24181 12.0208Z"/>
</mask>
<path d="M2.8276 13.435C5.56127 16.1687 9.99342 16.1687 12.7271 13.435L16.9697 9.19237L14.1413 6.36395L9.89866 10.6066C8.72709 11.7782 6.8276 11.7782 5.65602 10.6066L2.8276 13.435ZM7.77734 -1.34706e-05L-0.00083071 7.77816L7.77734 -1.34706e-05ZM-1.41504 9.19237L2.8276 13.435C5.56127 16.1687 9.99342 16.1687 12.7271 13.435L9.89866 10.6066C8.72709 11.7782 6.8276 11.7782 5.65602 10.6066L1.41338 6.36395L-1.41504 9.19237ZM15.5555 7.77816L7.77734 -1.34706e-05L15.5555 7.77816Z" fill="black" mask="url(#path-1-inside-1_1833_1273)"/>
</svg>
